<svg width="580" height="310" viewBox="0 0 580 310" fill="none" xmlns="http://www.w3.org/2000/svg">
<rect width="580" height="310" rx="20" fill="#1B1B1B"/>
<path d="M204.081 147.455V162H202.32V149.017H194.991V162H193.229V147.455H204.081ZM207.634 162V147.455H212.549C213.69 147.455 214.623 147.661 215.347 148.072C216.077 148.48 216.616 149.031 216.967 149.727C217.317 150.423 217.492 151.2 217.492 152.057C217.492 152.914 217.317 153.693 216.967 154.393C216.621 155.094 216.086 155.653 215.362 156.07C214.637 156.482 213.709 156.688 212.578 156.688H209.055V155.125H212.521C213.302 155.125 213.929 154.99 214.403 154.72C214.876 154.45 215.22 154.086 215.433 153.626C215.651 153.162 215.759 152.639 215.759 152.057C215.759 151.474 215.651 150.954 215.433 150.494C215.22 150.035 214.874 149.675 214.396 149.415C213.918 149.15 213.283 149.017 212.492 149.017H209.396V162H207.634ZM232.602 154.727C232.602 156.261 232.325 157.587 231.771 158.705C231.218 159.822 230.458 160.684 229.492 161.29C228.526 161.896 227.423 162.199 226.182 162.199C224.941 162.199 223.838 161.896 222.872 161.29C221.906 160.684 221.146 159.822 220.593 158.705C220.039 157.587 219.762 156.261 219.762 154.727C219.762 153.193 220.039 151.867 220.593 150.75C221.146 149.633 221.906 148.771 222.872 148.165C223.838 147.559 224.941 147.256 226.182 147.256C227.423 147.256 228.526 147.559 229.492 148.165C230.458 148.771 231.218 149.633 231.771 150.75C232.325 151.867 232.602 153.193 232.602 154.727ZM230.898 154.727C230.898 153.468 230.687 152.405 230.266 151.538C229.849 150.672 229.283 150.016 228.568 149.571C227.858 149.126 227.063 148.903 226.182 148.903C225.301 148.903 224.503 149.126 223.789 149.571C223.078 150.016 222.512 150.672 222.091 151.538C221.674 152.405 221.466 153.468 221.466 154.727C221.466 155.987 221.674 157.05 222.091 157.916C222.512 158.783 223.078 159.438 223.789 159.884C224.503 160.329 225.301 160.551 226.182 160.551C227.063 160.551 227.858 160.329 228.568 159.884C229.283 159.438 229.849 158.783 230.266 157.916C230.687 157.05 230.898 155.987 230.898 154.727ZM235.564 147.455H237.666L242.61 159.528H242.78L247.723 147.455H249.825V162H248.178V150.949H248.036L243.49 162H241.899L237.354 150.949H237.212V162H235.564V147.455ZM265.63 154.727C265.63 156.261 265.353 157.587 264.799 158.705C264.245 159.822 263.485 160.684 262.519 161.29C261.553 161.896 260.45 162.199 259.209 162.199C257.969 162.199 256.866 161.896 255.9 161.29C254.934 160.684 254.174 159.822 253.62 158.705C253.066 157.587 252.789 156.261 252.789 154.727C252.789 153.193 253.066 151.867 253.62 150.75C254.174 149.633 254.934 148.771 255.9 148.165C256.866 147.559 257.969 147.256 259.209 147.256C260.45 147.256 261.553 147.559 262.519 148.165C263.485 148.771 264.245 149.633 264.799 150.75C265.353 151.867 265.63 153.193 265.63 154.727ZM263.925 154.727C263.925 153.468 263.715 152.405 263.293 151.538C262.876 150.672 262.311 150.016 261.596 149.571C260.885 149.126 260.09 148.903 259.209 148.903C258.329 148.903 257.531 149.126 256.816 149.571C256.106 150.016 255.54 150.672 255.118 151.538C254.702 152.405 254.493 153.468 254.493 154.727C254.493 155.987 254.702 157.05 255.118 157.916C255.54 158.783 256.106 159.438 256.816 159.884C257.531 160.329 258.329 160.551 259.209 160.551C260.09 160.551 260.885 160.329 261.596 159.884C262.311 159.438 262.876 158.783 263.293 157.916C263.715 157.05 263.925 155.987 263.925 154.727ZM277.143 162L272.143 155.324H270.353V162H268.591V147.455H270.353V153.761H271.12L276.944 147.455H279.046L273.165 153.847L279.245 162H277.143ZM293.11 154.727C293.11 156.261 292.833 157.587 292.279 158.705C291.725 159.822 290.965 160.684 289.999 161.29C289.034 161.896 287.93 162.199 286.69 162.199C285.449 162.199 284.346 161.896 283.38 161.29C282.414 160.684 281.654 159.822 281.1 158.705C280.546 157.587 280.269 156.261 280.269 154.727C280.269 153.193 280.546 151.867 281.1 150.75C281.654 149.633 282.414 148.771 283.38 148.165C284.346 147.559 285.449 147.256 286.69 147.256C287.93 147.256 289.034 147.559 289.999 148.165C290.965 148.771 291.725 149.633 292.279 150.75C292.833 151.867 293.11 153.193 293.11 154.727ZM291.406 154.727C291.406 153.468 291.195 152.405 290.774 151.538C290.357 150.672 289.791 150.016 289.076 149.571C288.366 149.126 287.57 148.903 286.69 148.903C285.809 148.903 285.011 149.126 284.296 149.571C283.586 150.016 283.02 150.672 282.599 151.538C282.182 152.405 281.974 153.468 281.974 154.727C281.974 155.987 282.182 157.05 282.599 157.916C283.02 158.783 283.586 159.438 284.296 159.884C285.011 160.329 285.809 160.551 286.69 160.551C287.57 160.551 288.366 160.329 289.076 159.884C289.791 159.438 290.357 158.783 290.774 157.916C291.195 157.05 291.406 155.987 291.406 154.727ZM294.822 165.523V160.438H295.759C296.081 160.144 296.384 159.73 296.669 159.195C296.957 158.655 297.201 157.935 297.4 157.036C297.604 156.131 297.739 154.983 297.805 153.591L298.117 147.455H306.754V160.438H308.43V165.494H306.754V162H296.498V165.523H294.822ZM297.862 160.438H305.078V149.017H299.708L299.481 153.591C299.424 154.652 299.325 155.613 299.183 156.474C299.041 157.331 298.858 158.091 298.636 158.754C298.413 159.412 298.155 159.973 297.862 160.438ZM328.421 152H326.66C326.555 151.493 326.373 151.048 326.113 150.665C325.857 150.281 325.545 149.959 325.175 149.699C324.811 149.434 324.406 149.235 323.961 149.102C323.516 148.97 323.052 148.903 322.569 148.903C321.688 148.903 320.89 149.126 320.175 149.571C319.465 150.016 318.899 150.672 318.478 151.538C318.061 152.405 317.853 153.468 317.853 154.727C317.853 155.987 318.061 157.05 318.478 157.916C318.899 158.783 319.465 159.438 320.175 159.884C320.89 160.329 321.688 160.551 322.569 160.551C323.052 160.551 323.516 160.485 323.961 160.352C324.406 160.22 324.811 160.023 325.175 159.763C325.545 159.498 325.857 159.173 326.113 158.79C326.373 158.402 326.555 157.956 326.66 157.455H328.421C328.288 158.198 328.047 158.863 327.697 159.45C327.346 160.037 326.911 160.537 326.39 160.949C325.869 161.356 325.284 161.666 324.635 161.879C323.992 162.092 323.303 162.199 322.569 162.199C321.328 162.199 320.225 161.896 319.259 161.29C318.293 160.684 317.533 159.822 316.979 158.705C316.425 157.587 316.148 156.261 316.148 154.727C316.148 153.193 316.425 151.867 316.979 150.75C317.533 149.633 318.293 148.771 319.259 148.165C320.225 147.559 321.328 147.256 322.569 147.256C323.303 147.256 323.992 147.362 324.635 147.575C325.284 147.788 325.869 148.101 326.39 148.513C326.911 148.92 327.346 149.417 327.697 150.004C328.047 150.587 328.288 151.252 328.421 152ZM330.017 147.455H332.034L336.068 154.244H336.239L340.273 147.455H342.29L337.034 156.006V162H335.273V156.006L330.017 147.455ZM344.568 162V147.455H349.653C350.666 147.455 351.502 147.63 352.16 147.98C352.818 148.326 353.309 148.792 353.631 149.379C353.952 149.962 354.113 150.608 354.113 151.318C354.113 151.943 354.002 152.459 353.78 152.866C353.562 153.274 353.273 153.596 352.913 153.832C352.558 154.069 352.172 154.244 351.756 154.358V154.5C352.201 154.528 352.648 154.685 353.098 154.969C353.548 155.253 353.924 155.66 354.227 156.19C354.53 156.721 354.682 157.369 354.682 158.136C354.682 158.866 354.516 159.521 354.184 160.104C353.853 160.686 353.33 161.148 352.615 161.489C351.9 161.83 350.97 162 349.824 162H344.568ZM346.329 160.438H349.824C350.974 160.438 351.791 160.215 352.274 159.77C352.762 159.32 353.006 158.776 353.006 158.136C353.006 157.644 352.88 157.189 352.629 156.773C352.378 156.351 352.021 156.015 351.557 155.764C351.093 155.509 350.543 155.381 349.909 155.381H346.329V160.438ZM346.329 153.847H349.596C350.127 153.847 350.605 153.742 351.031 153.534C351.462 153.326 351.803 153.032 352.054 152.653C352.309 152.275 352.437 151.83 352.437 151.318C352.437 150.679 352.215 150.137 351.77 149.692C351.325 149.242 350.619 149.017 349.653 149.017H346.329V153.847ZM357.576 162V147.455H366.354V149.017H359.337V153.932H365.9V155.494H359.337V160.438H366.468V162H357.576ZM369.529 162V147.455H374.444C375.58 147.455 376.513 147.649 377.242 148.037C377.971 148.42 378.511 148.948 378.861 149.621C379.212 150.293 379.387 151.058 379.387 151.915C379.387 152.772 379.212 153.532 378.861 154.195C378.511 154.857 377.974 155.378 377.249 155.757C376.525 156.131 375.599 156.318 374.472 156.318H370.495V154.727H374.415C375.192 154.727 375.817 154.614 376.29 154.386C376.769 154.159 377.114 153.837 377.327 153.42C377.545 152.999 377.654 152.497 377.654 151.915C377.654 151.332 377.545 150.823 377.327 150.388C377.109 149.952 376.761 149.616 376.283 149.379C375.805 149.138 375.173 149.017 374.387 149.017H371.29V162H369.529ZM376.376 155.466L379.955 162H377.91L374.387 155.466H376.376Z" fill="white"/>
<path d="M32.642 270.455V285H30.8807V272.017H23.5511V285H21.7898V270.455H32.642ZM40.3995 285.227C39.4147 285.227 38.5505 284.993 37.8072 284.524C37.0685 284.055 36.4909 283.4 36.0742 282.557C35.6623 281.714 35.4563 280.729 35.4563 279.602C35.4563 278.466 35.6623 277.474 36.0742 276.626C36.4909 275.779 37.0685 275.121 37.8072 274.652C38.5505 274.183 39.4147 273.949 40.3995 273.949C41.3844 273.949 42.2461 274.183 42.9847 274.652C43.7281 275.121 44.3058 275.779 44.7177 276.626C45.1344 277.474 45.3427 278.466 45.3427 279.602C45.3427 280.729 45.1344 281.714 44.7177 282.557C44.3058 283.4 43.7281 284.055 42.9847 284.524C42.2461 284.993 41.3844 285.227 40.3995 285.227ZM40.3995 283.722C41.1476 283.722 41.7631 283.53 42.2461 283.146C42.729 282.763 43.0865 282.259 43.3185 281.634C43.5505 281.009 43.6665 280.331 43.6665 279.602C43.6665 278.873 43.5505 278.194 43.3185 277.564C43.0865 276.934 42.729 276.425 42.2461 276.037C41.7631 275.649 41.1476 275.455 40.3995 275.455C39.6514 275.455 39.0359 275.649 38.5529 276.037C38.07 276.425 37.7125 276.934 37.4805 277.564C37.2485 278.194 37.1325 278.873 37.1325 279.602C37.1325 280.331 37.2485 281.009 37.4805 281.634C37.7125 282.259 38.07 282.763 38.5529 283.146C39.0359 283.53 39.6514 283.722 40.3995 283.722ZM46.7365 288.125V283.438H47.6456C47.8681 283.205 48.0599 282.955 48.2209 282.685C48.3819 282.415 48.5215 282.095 48.6399 281.726C48.763 281.352 48.8672 280.897 48.9524 280.362C49.0376 279.822 49.1134 279.171 49.1797 278.409L49.549 274.091H56.4808V283.438H58.157V288.125H56.4808V285H48.4126V288.125H46.7365ZM49.549 283.438H54.8047V275.653H51.1115L50.8274 278.409C50.709 279.55 50.5623 280.547 50.3871 281.399C50.2119 282.251 49.9325 282.931 49.549 283.438ZM60.3817 289.091V274.091H62.0011V275.824H62.1999C62.323 275.634 62.4935 275.393 62.7113 275.099C62.9338 274.801 63.2511 274.536 63.663 274.304C64.0797 274.067 64.6431 273.949 65.3533 273.949C66.2719 273.949 67.0816 274.179 67.7823 274.638C68.4831 275.097 69.0299 275.748 69.4229 276.591C69.8159 277.434 70.0124 278.428 70.0124 279.574C70.0124 280.729 69.8159 281.731 69.4229 282.578C69.0299 283.421 68.4854 284.074 67.7894 284.538C67.0934 284.998 66.2908 285.227 65.3817 285.227C64.681 285.227 64.1199 285.111 63.6985 284.879C63.2771 284.643 62.9528 284.375 62.7255 284.077C62.4982 283.774 62.323 283.523 62.1999 283.324H62.0579V289.091H60.3817ZM62.0295 279.545C62.0295 280.369 62.1502 281.096 62.3917 281.726C62.6332 282.351 62.9859 282.841 63.4499 283.196C63.9139 283.546 64.4821 283.722 65.1545 283.722C65.8552 283.722 66.44 283.537 66.9087 283.168C67.3822 282.794 67.7373 282.292 67.9741 281.662C68.2156 281.027 68.3363 280.322 68.3363 279.545C68.3363 278.778 68.2179 278.087 67.9812 277.472C67.7492 276.851 67.3964 276.361 66.9229 276.001C66.4542 275.637 65.8647 275.455 65.1545 275.455C64.4727 275.455 63.8997 275.627 63.4357 275.973C62.9717 276.314 62.6213 276.792 62.3846 277.408C62.1478 278.018 62.0295 278.731 62.0295 279.545ZM77.0011 285.227C76.0162 285.227 75.1521 284.993 74.4087 284.524C73.6701 284.055 73.0924 283.4 72.6758 282.557C72.2638 281.714 72.0579 280.729 72.0579 279.602C72.0579 278.466 72.2638 277.474 72.6758 276.626C73.0924 275.779 73.6701 275.121 74.4087 274.652C75.1521 274.183 76.0162 273.949 77.0011 273.949C77.9859 273.949 78.8477 274.183 79.5863 274.652C80.3297 275.121 80.9073 275.779 81.3192 276.626C81.7359 277.474 81.9442 278.466 81.9442 279.602C81.9442 280.729 81.7359 281.714 81.3192 282.557C80.9073 283.4 80.3297 284.055 79.5863 284.524C78.8477 284.993 77.9859 285.227 77.0011 285.227ZM77.0011 283.722C77.7492 283.722 78.3647 283.53 78.8477 283.146C79.3306 282.763 79.6881 282.259 79.9201 281.634C80.1521 281.009 80.2681 280.331 80.2681 279.602C80.2681 278.873 80.1521 278.194 79.9201 277.564C79.6881 276.934 79.3306 276.425 78.8477 276.037C78.3647 275.649 77.7492 275.455 77.0011 275.455C76.253 275.455 75.6374 275.649 75.1545 276.037C74.6715 276.425 74.314 276.934 74.082 277.564C73.85 278.194 73.734 278.873 73.734 279.602C73.734 280.331 73.85 281.009 74.082 281.634C74.314 282.259 74.6715 282.763 75.1545 283.146C75.6374 283.53 76.253 283.722 77.0011 283.722ZM92.5994 270L93.4517 271.023C93.1203 271.345 92.7367 271.57 92.3011 271.697C91.8655 271.825 91.3731 271.903 90.8239 271.932C90.2746 271.96 89.6638 271.989 88.9915 272.017C88.2339 272.045 87.6065 272.23 87.1094 272.571C86.6122 272.912 86.2287 273.404 85.9588 274.048C85.6889 274.692 85.5161 275.483 85.4403 276.42H85.5824C85.9517 275.739 86.4631 275.237 87.1165 274.915C87.7699 274.593 88.4706 274.432 89.2188 274.432C90.071 274.432 90.8381 274.631 91.5199 275.028C92.2017 275.426 92.7415 276.016 93.1392 276.797C93.5369 277.578 93.7358 278.542 93.7358 279.688C93.7358 280.829 93.5322 281.813 93.125 282.642C92.7225 283.471 92.1567 284.11 91.4276 284.56C90.7031 285.005 89.8532 285.227 88.8778 285.227C87.9025 285.227 87.0478 284.998 86.3139 284.538C85.58 284.074 85.0095 283.388 84.6023 282.479C84.1951 281.565 83.9915 280.436 83.9915 279.091V277.926C83.9915 275.497 84.4034 273.655 85.2273 272.401C86.0559 271.146 87.3011 270.497 88.9631 270.455C89.5502 270.436 90.0734 270.431 90.5327 270.44C90.992 270.45 91.392 270.429 91.733 270.376C92.0739 270.324 92.3627 270.199 92.5994 270ZM88.8778 283.722C89.536 283.722 90.1018 283.556 90.5753 283.224C91.0535 282.893 91.4205 282.427 91.6761 281.825C91.9318 281.219 92.0597 280.507 92.0597 279.688C92.0597 278.892 91.9295 278.215 91.669 277.656C91.4134 277.098 91.0464 276.671 90.5682 276.378C90.09 276.084 89.517 275.938 88.8494 275.938C88.3617 275.938 87.9238 276.02 87.5355 276.186C87.1473 276.352 86.8158 276.596 86.5412 276.918C86.2666 277.24 86.0535 277.633 85.902 278.097C85.7552 278.561 85.6771 279.091 85.6676 279.688C85.6676 280.909 85.9541 281.887 86.527 282.621C87.0999 283.355 87.8835 283.722 88.8778 283.722ZM103.601 278.778V280.341H97.5781V278.778H103.601ZM97.9759 274.091V285H96.2997V274.091H97.9759ZM104.879 274.091V285H103.203V274.091H104.879ZM112.514 285.227C111.463 285.227 110.556 284.995 109.794 284.531C109.036 284.062 108.452 283.409 108.04 282.571C107.633 281.728 107.429 280.748 107.429 279.631C107.429 278.513 107.633 277.528 108.04 276.676C108.452 275.819 109.025 275.152 109.759 274.673C110.497 274.19 111.359 273.949 112.344 273.949C112.912 273.949 113.473 274.044 114.027 274.233C114.581 274.422 115.085 274.73 115.54 275.156C115.994 275.578 116.357 276.136 116.626 276.832C116.896 277.528 117.031 278.385 117.031 279.403V280.114H108.622V278.665H115.327C115.327 278.049 115.204 277.5 114.957 277.017C114.716 276.534 114.37 276.153 113.92 275.874C113.475 275.594 112.95 275.455 112.344 275.455C111.676 275.455 111.098 275.62 110.611 275.952C110.128 276.278 109.756 276.705 109.496 277.23C109.235 277.756 109.105 278.319 109.105 278.92V279.886C109.105 280.71 109.247 281.409 109.531 281.982C109.82 282.55 110.22 282.983 110.732 283.281C111.243 283.575 111.837 283.722 112.514 283.722C112.955 283.722 113.352 283.66 113.707 283.537C114.067 283.409 114.377 283.22 114.638 282.969C114.898 282.713 115.099 282.396 115.241 282.017L116.861 282.472C116.69 283.021 116.404 283.504 116.001 283.92C115.599 284.332 115.102 284.654 114.51 284.886C113.918 285.114 113.253 285.227 112.514 285.227ZM124.155 285.227C123.104 285.227 122.197 284.995 121.435 284.531C120.677 284.062 120.092 283.409 119.68 282.571C119.273 281.728 119.07 280.748 119.07 279.631C119.07 278.513 119.273 277.528 119.68 276.676C120.092 275.819 120.665 275.152 121.399 274.673C122.138 274.19 123 273.949 123.984 273.949C124.553 273.949 125.114 274.044 125.668 274.233C126.222 274.422 126.726 274.73 127.18 275.156C127.635 275.578 127.997 276.136 128.267 276.832C128.537 277.528 128.672 278.385 128.672 279.403V280.114H120.263V278.665H126.967C126.967 278.049 126.844 277.5 126.598 277.017C126.357 276.534 126.011 276.153 125.561 275.874C125.116 275.594 124.59 275.455 123.984 275.455C123.317 275.455 122.739 275.62 122.251 275.952C121.768 276.278 121.397 276.705 121.136 277.23C120.876 277.756 120.746 278.319 120.746 278.92V279.886C120.746 280.71 120.888 281.409 121.172 281.982C121.461 282.55 121.861 282.983 122.372 283.281C122.884 283.575 123.478 283.722 124.155 283.722C124.595 283.722 124.993 283.66 125.348 283.537C125.708 283.409 126.018 283.22 126.278 282.969C126.539 282.713 126.74 282.396 126.882 282.017L128.501 282.472C128.331 283.021 128.045 283.504 127.642 283.92C127.24 284.332 126.742 284.654 126.151 284.886C125.559 285.114 124.893 285.227 124.155 285.227ZM146.065 285L144.972 283.92L149.474 279.418H137.812V277.855H149.474L144.972 273.366L146.065 272.273L152.429 278.636L146.065 285Z" fill="white"/>
</svg>
