<svg width="460" height="310" viewBox="0 0 460 310" fill="none" xmlns="http://www.w3.org/2000/svg">
<rect width="460" height="310" rx="20" fill="#1B1B1B"/>
<path d="M144.794 159H143.033C142.929 158.493 142.746 158.048 142.486 157.665C142.23 157.281 141.918 156.959 141.548 156.699C141.184 156.434 140.779 156.235 140.334 156.102C139.889 155.97 139.425 155.903 138.942 155.903C138.061 155.903 137.263 156.126 136.548 156.571C135.838 157.016 135.272 157.672 134.851 158.538C134.434 159.405 134.226 160.468 134.226 161.727C134.226 162.987 134.434 164.05 134.851 164.916C135.272 165.783 135.838 166.438 136.548 166.884C137.263 167.329 138.061 167.551 138.942 167.551C139.425 167.551 139.889 167.485 140.334 167.352C140.779 167.22 141.184 167.023 141.548 166.763C141.918 166.498 142.23 166.173 142.486 165.79C142.746 165.402 142.929 164.956 143.033 164.455H144.794C144.661 165.198 144.42 165.863 144.07 166.45C143.719 167.037 143.284 167.537 142.763 167.949C142.242 168.356 141.657 168.666 141.009 168.879C140.365 169.092 139.676 169.199 138.942 169.199C137.701 169.199 136.598 168.896 135.632 168.29C134.666 167.684 133.906 166.822 133.352 165.705C132.798 164.587 132.521 163.261 132.521 161.727C132.521 160.193 132.798 158.867 133.352 157.75C133.906 156.633 134.666 155.771 135.632 155.165C136.598 154.559 137.701 154.256 138.942 154.256C139.676 154.256 140.365 154.362 141.009 154.575C141.657 154.788 142.242 155.101 142.763 155.513C143.284 155.92 143.719 156.417 144.07 157.004C144.42 157.587 144.661 158.252 144.794 159ZM156.191 169L151.191 162.324H149.402V169H147.64V154.455H149.402V160.761H150.169L155.993 154.455H158.095L152.214 160.847L158.294 169H156.191ZM160.57 154.455H162.303V165.903H162.445L170.4 154.455H172.104V169H170.343V157.58H170.201L162.275 169H160.57V154.455ZM174.379 172.523V167.438H175.316C175.638 167.144 175.941 166.73 176.225 166.195C176.514 165.655 176.758 164.935 176.957 164.036C177.16 163.131 177.295 161.983 177.362 160.591L177.674 154.455H186.31V167.438H187.987V172.494H186.31V169H176.055V172.523H174.379ZM177.418 167.438H184.634V156.017H179.265L179.038 160.591C178.981 161.652 178.881 162.613 178.739 163.474C178.597 164.331 178.415 165.091 178.192 165.754C177.97 166.412 177.712 166.973 177.418 167.438ZM199.199 169L194.199 162.324H192.409V169H190.648V154.455H192.409V160.761H193.176L199 154.455H201.103L195.222 160.847L201.301 169H199.199ZM203.578 154.455H205.311V165.903H205.453L213.407 154.455H215.112V169H213.35V157.58H213.208L205.282 169H203.578V154.455ZM235.142 154.455V169H233.381V156.017H226.051V169H224.29V154.455H235.142ZM238.695 169V154.455H240.456V160.932H248.212V154.455H249.973V169H248.212V162.494H240.456V169H238.695ZM259.522 160.946V162.509H253.159V160.946H259.522ZM274.403 159H272.642C272.538 158.493 272.356 158.048 272.095 157.665C271.839 157.281 271.527 156.959 271.158 156.699C270.793 156.434 270.388 156.235 269.943 156.102C269.498 155.97 269.034 155.903 268.551 155.903C267.67 155.903 266.873 156.126 266.158 156.571C265.447 157.016 264.882 157.672 264.46 158.538C264.044 159.405 263.835 160.468 263.835 161.727C263.835 162.987 264.044 164.05 264.46 164.916C264.882 165.783 265.447 166.438 266.158 166.884C266.873 167.329 267.67 167.551 268.551 167.551C269.034 167.551 269.498 167.485 269.943 167.352C270.388 167.22 270.793 167.023 271.158 166.763C271.527 166.498 271.839 166.173 272.095 165.79C272.356 165.402 272.538 164.956 272.642 164.455H274.403C274.271 165.198 274.029 165.863 273.679 166.45C273.329 167.037 272.893 167.537 272.372 167.949C271.851 168.356 271.267 168.666 270.618 168.879C269.974 169.092 269.285 169.199 268.551 169.199C267.311 169.199 266.207 168.896 265.241 168.29C264.276 167.684 263.516 166.822 262.962 165.705C262.408 164.587 262.131 163.261 262.131 161.727C262.131 160.193 262.408 158.867 262.962 157.75C263.516 156.633 264.276 155.771 265.241 155.165C266.207 154.559 267.311 154.256 268.551 154.256C269.285 154.256 269.974 154.362 270.618 154.575C271.267 154.788 271.851 155.101 272.372 155.513C272.893 155.92 273.329 156.417 273.679 157.004C274.029 157.587 274.271 158.252 274.403 159ZM277.25 169V154.455H282.164C283.306 154.455 284.238 154.661 284.963 155.072C285.692 155.48 286.232 156.031 286.582 156.727C286.932 157.423 287.108 158.2 287.108 159.057C287.108 159.914 286.932 160.693 286.582 161.393C286.236 162.094 285.701 162.653 284.977 163.07C284.252 163.482 283.324 163.688 282.193 163.688H278.67V162.125H282.136C282.917 162.125 283.545 161.99 284.018 161.72C284.492 161.45 284.835 161.086 285.048 160.626C285.266 160.162 285.375 159.639 285.375 159.057C285.375 158.474 285.266 157.954 285.048 157.494C284.835 157.035 284.489 156.675 284.011 156.415C283.533 156.15 282.898 156.017 282.108 156.017H279.011V169H277.25ZM289.945 169V154.455H298.723V156.017H291.706V160.932H298.269V162.494H291.706V167.438H298.837V169H289.945ZM300.648 172.523V167.438H301.586C301.908 167.144 302.211 166.73 302.495 166.195C302.783 165.655 303.027 164.935 303.226 164.036C303.43 163.131 303.565 161.983 303.631 160.591L303.944 154.455H312.58V167.438H314.256V172.494H312.58V169H302.324V172.523H300.648ZM303.688 167.438H310.904V156.017H305.534L305.307 160.591C305.25 161.652 305.151 162.613 305.009 163.474C304.867 164.331 304.685 165.091 304.462 165.754C304.239 166.412 303.981 166.973 303.688 167.438ZM317.514 169H315.668L321.009 154.455H322.827L328.168 169H326.321L321.974 156.756H321.861L317.514 169ZM318.196 163.318H325.639V164.881H318.196V163.318Z" fill="white"/>
<path d="M33.5591 285.199C32.6216 285.199 31.7859 285.038 31.052 284.716C30.3229 284.394 29.7428 283.946 29.312 283.374C28.8858 282.796 28.6538 282.126 28.6159 281.364H30.4057C30.4436 281.832 30.6046 282.237 30.8887 282.578C31.1728 282.914 31.5444 283.175 32.0037 283.359C32.463 283.544 32.972 283.636 33.5307 283.636C34.1557 283.636 34.7097 283.527 35.1926 283.31C35.6756 283.092 36.0544 282.789 36.329 282.401C36.6036 282.012 36.7409 281.562 36.7409 281.051C36.7409 280.516 36.6084 280.045 36.3432 279.638C36.0781 279.226 35.6898 278.904 35.1784 278.672C34.6671 278.44 34.0421 278.324 33.3034 278.324H32.1387V276.761H33.3034C33.8811 276.761 34.3877 276.657 34.8233 276.449C35.2637 276.241 35.6069 275.947 35.8532 275.568C36.1041 275.189 36.2296 274.744 36.2296 274.233C36.2296 273.741 36.1207 273.312 35.9029 272.947C35.6851 272.583 35.3773 272.299 34.9796 272.095C34.5866 271.892 34.1226 271.79 33.5875 271.79C33.0856 271.79 32.6122 271.882 32.1671 272.067C31.7267 272.247 31.3669 272.509 31.0875 272.855C30.8082 273.196 30.6567 273.608 30.633 274.091H28.9284C28.9569 273.329 29.1865 272.661 29.6174 272.088C30.0482 271.51 30.6117 271.061 31.3077 270.739C32.0085 270.417 32.7779 270.256 33.6159 270.256C34.5156 270.256 35.2873 270.438 35.9313 270.803C36.5752 271.162 37.07 271.638 37.4157 272.23C37.7613 272.822 37.9341 273.461 37.9341 274.148C37.9341 274.967 37.7187 275.665 37.2878 276.243C36.8617 276.821 36.2817 277.221 35.5478 277.443V277.557C36.4663 277.708 37.1837 278.099 37.6998 278.729C38.2159 279.354 38.4739 280.128 38.4739 281.051C38.4739 281.842 38.2585 282.552 37.8276 283.182C37.4015 283.807 36.8191 284.299 36.0804 284.659C35.3418 285.019 34.5014 285.199 33.5591 285.199ZM44.6174 285.256C43.9261 285.256 43.2987 285.125 42.7353 284.865C42.1718 284.6 41.7244 284.219 41.3929 283.722C41.0615 283.22 40.8958 282.614 40.8958 281.903C40.8958 281.278 41.0189 280.772 41.2651 280.384C41.5113 279.991 41.8404 279.683 42.2523 279.46C42.6642 279.238 43.1188 279.072 43.6159 278.963C44.1178 278.849 44.6221 278.759 45.1287 278.693C45.7916 278.608 46.329 278.544 46.7409 278.501C47.1576 278.454 47.4606 278.376 47.65 278.267C47.8442 278.158 47.9412 277.969 47.9412 277.699V277.642C47.9412 276.941 47.7495 276.397 47.3659 276.009C46.9872 275.62 46.4119 275.426 45.6401 275.426C44.8399 275.426 44.2125 275.601 43.758 275.952C43.3034 276.302 42.9838 276.676 42.7992 277.074L41.2083 276.506C41.4924 275.843 41.8712 275.327 42.3446 274.957C42.8229 274.583 43.3437 274.323 43.9071 274.176C44.4753 274.025 45.034 273.949 45.5833 273.949C45.9337 273.949 46.3361 273.991 46.7907 274.077C47.2499 274.157 47.6926 274.325 48.1188 274.581C48.5497 274.837 48.9071 275.223 49.1912 275.739C49.4753 276.255 49.6174 276.946 49.6174 277.812V285H47.9412V283.523H47.856C47.7424 283.759 47.553 284.013 47.2878 284.283C47.0227 284.553 46.6699 284.782 46.2296 284.972C45.7892 285.161 45.2518 285.256 44.6174 285.256ZM44.873 283.75C45.5359 283.75 46.0946 283.62 46.5492 283.359C47.0085 283.099 47.3541 282.763 47.5861 282.351C47.8229 281.939 47.9412 281.506 47.9412 281.051V279.517C47.8702 279.602 47.714 279.68 47.4725 279.751C47.2357 279.818 46.9611 279.877 46.6486 279.929C46.3408 279.976 46.0402 280.019 45.7466 280.057C45.4578 280.09 45.2234 280.118 45.0435 280.142C44.6079 280.199 44.2007 280.291 43.8219 280.419C43.4479 280.542 43.1448 280.729 42.9128 280.98C42.6855 281.226 42.5719 281.562 42.5719 281.989C42.5719 282.571 42.7873 283.011 43.2182 283.31C43.6538 283.603 44.2054 283.75 44.873 283.75ZM60.7733 270L61.6255 271.023C61.2941 271.345 60.9106 271.57 60.475 271.697C60.0394 271.825 59.5469 271.903 58.9977 271.932C58.4484 271.96 57.8377 271.989 57.1653 272.017C56.4077 272.045 55.7804 272.23 55.2832 272.571C54.786 272.912 54.4025 273.404 54.1326 274.048C53.8627 274.692 53.6899 275.483 53.6142 276.42H53.7562C54.1255 275.739 54.6369 275.237 55.2903 274.915C55.9437 274.593 56.6445 274.432 57.3926 274.432C58.2449 274.432 59.0119 274.631 59.6937 275.028C60.3755 275.426 60.9153 276.016 61.313 276.797C61.7108 277.578 61.9096 278.542 61.9096 279.688C61.9096 280.829 61.706 281.813 61.2988 282.642C60.8964 283.471 60.3306 284.11 59.6014 284.56C58.877 285.005 58.027 285.227 57.0517 285.227C56.0763 285.227 55.2217 284.998 54.4877 284.538C53.7538 284.074 53.1833 283.388 52.7761 282.479C52.3689 281.565 52.1653 280.436 52.1653 279.091V277.926C52.1653 275.497 52.5772 273.655 53.4011 272.401C54.2297 271.146 55.475 270.497 57.1369 270.455C57.724 270.436 58.2472 270.431 58.7065 270.44C59.1658 270.45 59.5659 270.429 59.9068 270.376C60.2477 270.324 60.5365 270.199 60.7733 270ZM57.0517 283.722C57.7098 283.722 58.2756 283.556 58.7491 283.224C59.2273 282.893 59.5943 282.427 59.85 281.825C60.1056 281.219 60.2335 280.507 60.2335 279.688C60.2335 278.892 60.1033 278.215 59.8429 277.656C59.5872 277.098 59.2202 276.671 58.742 276.378C58.2638 276.084 57.6909 275.938 57.0233 275.938C56.5356 275.938 56.0976 276.02 55.7093 276.186C55.3211 276.352 54.9896 276.596 54.715 276.918C54.4404 277.24 54.2273 277.633 54.0758 278.097C53.929 278.561 53.8509 279.091 53.8414 279.688C53.8414 280.909 54.1279 281.887 54.7008 282.621C55.2737 283.355 56.0574 283.722 57.0517 283.722ZM64.4735 289.091V274.091H66.0929V275.824H66.2917C66.4148 275.634 66.5853 275.393 66.8031 275.099C67.0256 274.801 67.3429 274.536 67.7548 274.304C68.1715 274.067 68.7349 273.949 69.4451 273.949C70.3637 273.949 71.1734 274.179 71.8741 274.638C72.5749 275.097 73.1217 275.748 73.5147 276.591C73.9077 277.434 74.1042 278.428 74.1042 279.574C74.1042 280.729 73.9077 281.731 73.5147 282.578C73.1217 283.421 72.5772 284.074 71.8812 284.538C71.1852 284.998 70.3826 285.227 69.4735 285.227C68.7728 285.227 68.2117 285.111 67.7903 284.879C67.3689 284.643 67.0446 284.375 66.8173 284.077C66.59 283.774 66.4148 283.523 66.2917 283.324H66.1497V289.091H64.4735ZM66.1213 279.545C66.1213 280.369 66.242 281.096 66.4835 281.726C66.725 282.351 67.0777 282.841 67.5417 283.196C68.0057 283.546 68.5739 283.722 69.2463 283.722C69.947 283.722 70.5318 283.537 71.0005 283.168C71.474 282.794 71.8291 282.292 72.0659 281.662C72.3074 281.027 72.4281 280.322 72.4281 279.545C72.4281 278.778 72.3097 278.087 72.073 277.472C71.841 276.851 71.4882 276.361 71.0147 276.001C70.546 275.637 69.9565 275.455 69.2463 275.455C68.5645 275.455 67.9915 275.627 67.5275 275.973C67.0635 276.314 66.7131 276.792 66.4764 277.408C66.2396 278.018 66.1213 278.731 66.1213 279.545ZM81.0929 285.227C80.108 285.227 79.2439 284.993 78.5005 284.524C77.7619 284.055 77.1842 283.4 76.7676 282.557C76.3556 281.714 76.1497 280.729 76.1497 279.602C76.1497 278.466 76.3556 277.474 76.7676 276.626C77.1842 275.779 77.7619 275.121 78.5005 274.652C79.2439 274.183 80.108 273.949 81.0929 273.949C82.0777 273.949 82.9395 274.183 83.6781 274.652C84.4215 275.121 84.9991 275.779 85.411 276.626C85.8277 277.474 86.036 278.466 86.036 279.602C86.036 280.729 85.8277 281.714 85.411 282.557C84.9991 283.4 84.4215 284.055 83.6781 284.524C82.9395 284.993 82.0777 285.227 81.0929 285.227ZM81.0929 283.722C81.841 283.722 82.4565 283.53 82.9395 283.146C83.4224 282.763 83.7799 282.259 84.0119 281.634C84.2439 281.009 84.3599 280.331 84.3599 279.602C84.3599 278.873 84.2439 278.194 84.0119 277.564C83.7799 276.934 83.4224 276.425 82.9395 276.037C82.4565 275.649 81.841 275.455 81.0929 275.455C80.3448 275.455 79.7292 275.649 79.2463 276.037C78.7633 276.425 78.4058 276.934 78.1738 277.564C77.9418 278.194 77.8258 278.873 77.8258 279.602C77.8258 280.331 77.9418 281.009 78.1738 281.634C78.4058 282.259 78.7633 282.763 79.2463 283.146C79.7292 283.53 80.3448 283.722 81.0929 283.722ZM95.8958 278.778V280.341H89.873V278.778H95.8958ZM90.2708 274.091V285H88.5946V274.091H90.2708ZM97.1742 274.091V285H95.498V274.091H97.1742ZM101.911 282.528L107.167 274.091H109.099V285H107.423V276.562L102.195 285H100.235V274.091H101.911V282.528ZM112.169 289.091V274.091H113.788V275.824H113.987C114.11 275.634 114.281 275.393 114.498 275.099C114.721 274.801 115.038 274.536 115.45 274.304C115.867 274.067 116.43 273.949 117.14 273.949C118.059 273.949 118.869 274.179 119.569 274.638C120.27 275.097 120.817 275.748 121.21 276.591C121.603 277.434 121.8 278.428 121.8 279.574C121.8 280.729 121.603 281.731 121.21 282.578C120.817 283.421 120.273 284.074 119.577 284.538C118.881 284.998 118.078 285.227 117.169 285.227C116.468 285.227 115.907 285.111 115.486 284.879C115.064 284.643 114.74 284.375 114.513 284.077C114.285 283.774 114.11 283.523 113.987 283.324H113.845V289.091H112.169ZM113.817 279.545C113.817 280.369 113.937 281.096 114.179 281.726C114.42 282.351 114.773 282.841 115.237 283.196C115.701 283.546 116.269 283.722 116.942 283.722C117.642 283.722 118.227 283.537 118.696 283.168C119.169 282.794 119.524 282.292 119.761 281.662C120.003 281.027 120.123 280.322 120.123 279.545C120.123 278.778 120.005 278.087 119.768 277.472C119.536 276.851 119.184 276.361 118.71 276.001C118.241 275.637 117.652 275.455 116.942 275.455C116.26 275.455 115.687 275.627 115.223 275.973C114.759 276.314 114.408 276.792 114.172 277.408C113.935 278.018 113.817 278.731 113.817 279.545ZM128.788 285.227C127.803 285.227 126.939 284.993 126.196 284.524C125.457 284.055 124.88 283.4 124.463 282.557C124.051 281.714 123.845 280.729 123.845 279.602C123.845 278.466 124.051 277.474 124.463 276.626C124.88 275.779 125.457 275.121 126.196 274.652C126.939 274.183 127.803 273.949 128.788 273.949C129.773 273.949 130.635 274.183 131.373 274.652C132.117 275.121 132.694 275.779 133.106 276.626C133.523 277.474 133.731 278.466 133.731 279.602C133.731 280.729 133.523 281.714 133.106 282.557C132.694 283.4 132.117 284.055 131.373 284.524C130.635 284.993 129.773 285.227 128.788 285.227ZM128.788 283.722C129.536 283.722 130.152 283.53 130.635 283.146C131.118 282.763 131.475 282.259 131.707 281.634C131.939 281.009 132.055 280.331 132.055 279.602C132.055 278.873 131.939 278.194 131.707 277.564C131.475 276.934 131.118 276.425 130.635 276.037C130.152 275.649 129.536 275.455 128.788 275.455C128.04 275.455 127.425 275.649 126.942 276.037C126.459 276.425 126.101 276.934 125.869 277.564C125.637 278.194 125.521 278.873 125.521 279.602C125.521 280.331 125.637 281.009 125.869 281.634C126.101 282.259 126.459 282.763 126.942 283.146C127.425 283.53 128.04 283.722 128.788 283.722ZM136.29 285V274.091H140.75C141.924 274.091 142.857 274.356 143.548 274.886C144.24 275.417 144.585 276.117 144.585 276.989C144.585 277.652 144.389 278.165 143.996 278.53C143.603 278.89 143.099 279.134 142.483 279.261C142.886 279.318 143.276 279.46 143.655 279.688C144.039 279.915 144.356 280.227 144.607 280.625C144.858 281.018 144.983 281.501 144.983 282.074C144.983 282.633 144.841 283.132 144.557 283.572C144.273 284.013 143.866 284.361 143.335 284.616C142.805 284.872 142.171 285 141.432 285H136.29ZM137.881 283.466H141.432C142.01 283.466 142.462 283.329 142.789 283.054C143.115 282.779 143.279 282.405 143.279 281.932C143.279 281.368 143.115 280.926 142.789 280.604C142.462 280.277 142.01 280.114 141.432 280.114H137.881V283.466ZM137.881 278.665H140.75C141.2 278.665 141.586 278.603 141.908 278.48C142.23 278.352 142.476 278.172 142.646 277.94C142.822 277.704 142.909 277.424 142.909 277.102C142.909 276.643 142.718 276.283 142.334 276.023C141.95 275.758 141.423 275.625 140.75 275.625H137.881V278.665ZM150.731 285.256C150.039 285.256 149.412 285.125 148.849 284.865C148.285 284.6 147.838 284.219 147.506 283.722C147.175 283.22 147.009 282.614 147.009 281.903C147.009 281.278 147.132 280.772 147.378 280.384C147.625 279.991 147.954 279.683 148.366 279.46C148.778 279.238 149.232 279.072 149.729 278.963C150.231 278.849 150.735 278.759 151.242 278.693C151.905 278.608 152.442 278.544 152.854 278.501C153.271 278.454 153.574 278.376 153.763 278.267C153.957 278.158 154.055 277.969 154.055 277.699V277.642C154.055 276.941 153.863 276.397 153.479 276.009C153.1 275.62 152.525 275.426 151.753 275.426C150.953 275.426 150.326 275.601 149.871 275.952C149.417 276.302 149.097 276.676 148.912 277.074L147.322 276.506C147.606 275.843 147.984 275.327 148.458 274.957C148.936 274.583 149.457 274.323 150.02 274.176C150.589 274.025 151.147 273.949 151.697 273.949C152.047 273.949 152.449 273.991 152.904 274.077C153.363 274.157 153.806 274.325 154.232 274.581C154.663 274.837 155.02 275.223 155.305 275.739C155.589 276.255 155.731 276.946 155.731 277.812V285H154.055V283.523H153.969C153.856 283.759 153.666 284.013 153.401 284.283C153.136 284.553 152.783 284.782 152.343 284.972C151.903 285.161 151.365 285.256 150.731 285.256ZM150.986 283.75C151.649 283.75 152.208 283.62 152.662 283.359C153.122 283.099 153.467 282.763 153.699 282.351C153.936 281.939 154.055 281.506 154.055 281.051V279.517C153.983 279.602 153.827 279.68 153.586 279.751C153.349 279.818 153.074 279.877 152.762 279.929C152.454 279.976 152.153 280.019 151.86 280.057C151.571 280.09 151.337 280.118 151.157 280.142C150.721 280.199 150.314 280.291 149.935 280.419C149.561 280.542 149.258 280.729 149.026 280.98C148.799 281.226 148.685 281.562 148.685 281.989C148.685 282.571 148.901 283.011 149.331 283.31C149.767 283.603 150.319 283.75 150.986 283.75ZM157.306 275.653V274.091H166.169V275.653H162.59V285H160.914V275.653H157.306ZM170.063 278.04H173.188C174.466 278.04 175.444 278.364 176.121 279.013C176.798 279.661 177.137 280.483 177.137 281.477C177.137 282.131 176.985 282.725 176.682 283.26C176.379 283.79 175.934 284.214 175.347 284.531C174.76 284.844 174.04 285 173.188 285H168.614V274.091H170.29V283.438H173.188C173.851 283.438 174.395 283.262 174.822 282.912C175.248 282.562 175.461 282.112 175.461 281.562C175.461 280.985 175.248 280.514 174.822 280.149C174.395 279.785 173.851 279.602 173.188 279.602H170.063V278.04ZM194.532 285L193.438 283.92L197.941 279.418H186.279V277.855H197.941L193.438 273.366L194.532 272.273L200.896 278.636L194.532 285Z" fill="white"/>
</svg>
