<svg width="580" height="310" viewBox="0 0 580 310" fill="none" xmlns="http://www.w3.org/2000/svg">
<rect width="580" height="310" rx="20" fill="#1B1B1B"/>
<path d="M196.527 157L191.527 150.324H189.738V157H187.976V142.455H189.738V148.761H190.505L196.328 142.455H198.431L192.55 148.847L198.63 157H196.527ZM200.906 142.455H202.639V153.903H202.781L210.735 142.455H212.44V157H210.679V145.58H210.537L202.61 157H200.906V142.455ZM215.964 157V142.455H224.743V144.017H217.726V148.562H221.419C222.461 148.562 223.339 148.733 224.054 149.074C224.774 149.415 225.318 149.895 225.688 150.516C226.062 151.136 226.249 151.867 226.249 152.71C226.249 153.553 226.062 154.296 225.688 154.94C225.318 155.584 224.774 156.089 224.054 156.453C223.339 156.818 222.461 157 221.419 157H215.964ZM217.726 155.466H221.419C222.082 155.466 222.643 155.333 223.102 155.068C223.566 154.798 223.917 154.453 224.153 154.031C224.395 153.605 224.516 153.155 224.516 152.682C224.516 151.986 224.248 151.387 223.713 150.885C223.178 150.378 222.413 150.125 221.419 150.125H217.726V155.466ZM229.148 157V142.455H237.926V144.017H230.909V148.932H237.472V150.494H230.909V155.438H238.04V157H229.148ZM241.101 157V142.455H246.016C247.157 142.455 248.09 142.661 248.814 143.072C249.543 143.48 250.083 144.031 250.434 144.727C250.784 145.423 250.959 146.2 250.959 147.057C250.959 147.914 250.784 148.693 250.434 149.393C250.088 150.094 249.553 150.653 248.828 151.07C248.104 151.482 247.176 151.688 246.044 151.688H242.522V150.125H245.988C246.769 150.125 247.396 149.99 247.87 149.72C248.343 149.45 248.686 149.086 248.9 148.626C249.117 148.162 249.226 147.639 249.226 147.057C249.226 146.474 249.117 145.954 248.9 145.494C248.686 145.035 248.341 144.675 247.863 144.415C247.384 144.15 246.75 144.017 245.959 144.017H242.863V157H241.101ZM258.797 144.188H261.098C262.177 144.188 263.136 144.429 263.974 144.912C264.812 145.395 265.47 146.067 265.949 146.929C266.427 147.791 266.666 148.79 266.666 149.926C266.666 151.062 266.427 152.064 265.949 152.93C265.47 153.797 264.812 154.474 263.974 154.962C263.136 155.449 262.177 155.693 261.098 155.693H258.797C257.717 155.693 256.758 155.452 255.92 154.969C255.082 154.486 254.424 153.813 253.946 152.952C253.467 152.09 253.228 151.091 253.228 149.955C253.228 148.818 253.467 147.817 253.946 146.95C254.424 146.084 255.082 145.407 255.92 144.919C256.758 144.431 257.717 144.188 258.797 144.188ZM258.797 145.75C257.973 145.75 257.277 145.923 256.708 146.268C256.145 146.614 255.717 147.102 255.423 147.732C255.134 148.361 254.99 149.102 254.99 149.955C254.99 150.797 255.134 151.531 255.423 152.156C255.717 152.781 256.145 153.267 256.708 153.612C257.277 153.958 257.973 154.131 258.797 154.131H261.098C261.922 154.131 262.615 153.958 263.179 153.612C263.747 153.267 264.175 152.779 264.464 152.149C264.758 151.519 264.904 150.778 264.904 149.926C264.904 149.083 264.758 148.349 264.464 147.724C264.175 147.099 263.747 146.614 263.179 146.268C262.615 145.923 261.922 145.75 261.098 145.75H258.797ZM260.842 142.199V157.597H259.081V142.199H260.842ZM269.617 142.455H271.35V153.903H271.492L279.446 142.455H281.151V157H279.39V145.58H279.248L271.321 157H269.617V142.455ZM293.227 157L288.227 150.324H286.437V157H284.675V142.455H286.437V148.761H287.204L293.028 142.455H295.13L289.249 148.847L295.329 157H293.227ZM298.202 157H296.355L301.696 142.455H303.514L308.855 157H307.009L302.662 144.756H302.548L298.202 157ZM298.884 151.318H306.327V152.881H298.884V151.318ZM323.479 155.324L323.28 160.438H321.462V157H320.439V155.324H323.479ZM311.121 157V142.455H312.797V155.381H320.297V142.455H321.973V157H311.121ZM326.14 142.455H327.873V153.903H328.015L335.97 142.455H337.674V157H335.913V145.58H335.771L327.845 157H326.14V142.455ZM351.085 157H349.324V144.017H346.227C345.441 144.017 344.809 144.138 344.331 144.379C343.853 144.616 343.505 144.952 343.287 145.388C343.069 145.823 342.96 146.332 342.96 146.915C342.96 147.497 343.067 147.999 343.28 148.42C343.498 148.837 343.843 149.159 344.317 149.386C344.795 149.614 345.422 149.727 346.199 149.727H350.119V151.318H346.142C345.015 151.318 344.089 151.131 343.365 150.757C342.641 150.378 342.103 149.857 341.753 149.195C341.402 148.532 341.227 147.772 341.227 146.915C341.227 146.058 341.402 145.293 341.753 144.621C342.103 143.948 342.643 143.42 343.372 143.037C344.101 142.649 345.034 142.455 346.17 142.455H351.085V157ZM344.239 150.466H346.227L342.705 157H340.659L344.239 150.466ZM371.946 147H370.185C370.081 146.493 369.899 146.048 369.638 145.665C369.382 145.281 369.07 144.959 368.701 144.699C368.336 144.434 367.931 144.235 367.486 144.102C367.041 143.97 366.577 143.903 366.094 143.903C365.213 143.903 364.416 144.126 363.701 144.571C362.99 145.016 362.425 145.672 362.003 146.538C361.587 147.405 361.378 148.468 361.378 149.727C361.378 150.987 361.587 152.05 362.003 152.916C362.425 153.783 362.99 154.438 363.701 154.884C364.416 155.329 365.213 155.551 366.094 155.551C366.577 155.551 367.041 155.485 367.486 155.352C367.931 155.22 368.336 155.023 368.701 154.763C369.07 154.498 369.382 154.173 369.638 153.79C369.899 153.402 370.081 152.956 370.185 152.455H371.946C371.814 153.198 371.572 153.863 371.222 154.45C370.872 155.037 370.436 155.537 369.915 155.949C369.394 156.356 368.81 156.666 368.161 156.879C367.517 157.092 366.828 157.199 366.094 157.199C364.854 157.199 363.75 156.896 362.784 156.29C361.819 155.684 361.059 154.822 360.505 153.705C359.951 152.587 359.674 151.261 359.674 149.727C359.674 148.193 359.951 146.867 360.505 145.75C361.059 144.633 361.819 143.771 362.784 143.165C363.75 142.559 364.854 142.256 366.094 142.256C366.828 142.256 367.517 142.362 368.161 142.575C368.81 142.788 369.394 143.101 369.915 143.513C370.436 143.92 370.872 144.417 371.222 145.004C371.572 145.587 371.814 146.252 371.946 147ZM382.747 146.091C382.662 145.371 382.316 144.812 381.71 144.415C381.104 144.017 380.361 143.818 379.48 143.818C378.836 143.818 378.273 143.922 377.79 144.131C377.312 144.339 376.938 144.625 376.668 144.99C376.402 145.355 376.27 145.769 376.27 146.233C376.27 146.621 376.362 146.955 376.547 147.234C376.736 147.509 376.978 147.739 377.271 147.923C377.565 148.103 377.873 148.252 378.195 148.371C378.517 148.484 378.812 148.577 379.082 148.648L380.56 149.045C380.938 149.145 381.36 149.282 381.824 149.457C382.293 149.633 382.74 149.872 383.166 150.175C383.597 150.473 383.952 150.857 384.232 151.325C384.511 151.794 384.651 152.369 384.651 153.051C384.651 153.837 384.445 154.547 384.033 155.182C383.625 155.816 383.029 156.321 382.243 156.695C381.462 157.069 380.512 157.256 379.395 157.256C378.353 157.256 377.451 157.088 376.689 156.751C375.931 156.415 375.335 155.946 374.899 155.345C374.468 154.744 374.224 154.045 374.168 153.25H375.986C376.033 153.799 376.218 154.254 376.54 154.614C376.866 154.969 377.278 155.234 377.776 155.409C378.277 155.58 378.817 155.665 379.395 155.665C380.067 155.665 380.671 155.556 381.206 155.338C381.741 155.116 382.165 154.808 382.477 154.415C382.79 154.017 382.946 153.553 382.946 153.023C382.946 152.54 382.811 152.147 382.541 151.844C382.271 151.541 381.916 151.295 381.476 151.105C381.036 150.916 380.56 150.75 380.048 150.608L378.259 150.097C377.122 149.77 376.223 149.304 375.56 148.697C374.897 148.091 374.565 147.298 374.565 146.318C374.565 145.504 374.786 144.794 375.226 144.188C375.671 143.577 376.268 143.103 377.016 142.767C377.768 142.426 378.609 142.256 379.537 142.256C380.474 142.256 381.308 142.424 382.037 142.76C382.766 143.091 383.344 143.546 383.77 144.124C384.201 144.701 384.428 145.357 384.452 146.091H382.747Z" fill="white"/>
<path d="M22.6136 270.455L26.3636 276.506H26.4773L30.2273 270.455H32.3011L27.7273 277.727L32.3011 285H30.2273L26.4773 279.062H26.3636L22.6136 285H20.5398L25.2273 277.727L20.5398 270.455H22.6136ZM38.2315 285.227C37.2467 285.227 36.3826 284.993 35.6392 284.524C34.9006 284.055 34.3229 283.4 33.9062 282.557C33.4943 281.714 33.2884 280.729 33.2884 279.602C33.2884 278.466 33.4943 277.474 33.9062 276.626C34.3229 275.779 34.9006 275.121 35.6392 274.652C36.3826 274.183 37.2467 273.949 38.2315 273.949C39.2164 273.949 40.0781 274.183 40.8168 274.652C41.5601 275.121 42.1378 275.779 42.5497 276.626C42.9664 277.474 43.1747 278.466 43.1747 279.602C43.1747 280.729 42.9664 281.714 42.5497 282.557C42.1378 283.4 41.5601 284.055 40.8168 284.524C40.0781 284.993 39.2164 285.227 38.2315 285.227ZM38.2315 283.722C38.9796 283.722 39.5952 283.53 40.0781 283.146C40.5611 282.763 40.9186 282.259 41.1506 281.634C41.3826 281.009 41.4986 280.331 41.4986 279.602C41.4986 278.873 41.3826 278.194 41.1506 277.564C40.9186 276.934 40.5611 276.425 40.0781 276.037C39.5952 275.649 38.9796 275.455 38.2315 275.455C37.4834 275.455 36.8679 275.649 36.3849 276.037C35.902 276.425 35.5445 276.934 35.3125 277.564C35.0805 278.194 34.9645 278.873 34.9645 279.602C34.9645 280.331 35.0805 281.009 35.3125 281.634C35.5445 282.259 35.902 282.763 36.3849 283.146C36.8679 283.53 37.4834 283.722 38.2315 283.722ZM54.1424 274.091V285H52.4663V274.091H54.1424ZM53.489 279.29V280.852C53.1102 280.994 52.7338 281.12 52.3597 281.229C51.9857 281.333 51.5927 281.416 51.1808 281.477C50.7688 281.534 50.3166 281.562 49.8242 281.562C48.5884 281.562 47.5965 281.229 46.8484 280.561C46.105 279.893 45.7333 278.892 45.7333 277.557V274.062H47.4094V277.557C47.4094 278.116 47.516 278.575 47.729 278.935C47.9421 279.295 48.2309 279.562 48.5955 279.737C48.9601 279.912 49.3697 280 49.8242 280C50.5344 280 51.176 279.936 51.7489 279.808C52.3266 279.676 52.9066 279.503 53.489 279.29ZM57.9066 289.091C57.6225 289.091 57.3692 289.067 57.1467 289.02C56.9241 288.977 56.7702 288.935 56.685 288.892L57.1112 287.415C57.5183 287.519 57.8782 287.557 58.1907 287.528C58.5032 287.5 58.7802 287.36 59.0217 287.109C59.2679 286.863 59.4928 286.463 59.6964 285.909L60.0089 285.057L55.9748 274.091H57.793L60.8043 282.784H60.918L63.9293 274.091H65.7475L61.1168 286.591C60.9085 287.154 60.6504 287.621 60.3427 287.99C60.0349 288.364 59.6774 288.641 59.2702 288.821C58.8678 289.001 58.4132 289.091 57.9066 289.091ZM74.6644 289.091C74.3803 289.091 74.127 289.067 73.9045 289.02C73.6819 288.977 73.5281 288.935 73.4428 288.892L73.869 287.415C74.2762 287.519 74.636 287.557 74.9485 287.528C75.261 287.5 75.538 287.36 75.7795 287.109C76.0257 286.863 76.2506 286.463 76.4542 285.909L76.7667 285.057L72.7326 274.091H74.5508L77.5621 282.784H77.6758L80.6871 274.091H82.5053L77.8746 286.591C77.6663 287.154 77.4083 287.621 77.1005 287.99C76.7927 288.364 76.4353 288.641 76.0281 288.821C75.6256 289.001 75.171 289.091 74.6644 289.091ZM92.7947 274.091V285H91.1186V274.091H92.7947ZM92.1413 279.29V280.852C91.7625 280.994 91.3861 281.12 91.0121 281.229C90.638 281.333 90.245 281.416 89.8331 281.477C89.4212 281.534 88.969 281.562 88.4766 281.562C87.2408 281.562 86.2488 281.229 85.5007 280.561C84.7573 279.893 84.3857 278.892 84.3857 277.557V274.062H86.0618V277.557C86.0618 278.116 86.1683 278.575 86.3814 278.935C86.5945 279.295 86.8833 279.562 87.2479 279.737C87.6125 279.912 88.022 280 88.4766 280C89.1868 280 89.8284 279.936 90.4013 279.808C90.9789 279.676 91.5589 279.503 92.1413 279.29ZM99.0803 285.256C98.389 285.256 97.7616 285.125 97.1982 284.865C96.6347 284.6 96.1873 284.219 95.8558 283.722C95.5244 283.22 95.3587 282.614 95.3587 281.903C95.3587 281.278 95.4818 280.772 95.728 280.384C95.9742 279.991 96.3033 279.683 96.7152 279.46C97.1271 279.238 97.5817 279.072 98.0788 278.963C98.5807 278.849 99.085 278.759 99.5916 278.693C100.254 278.608 100.792 278.544 101.204 278.501C101.621 278.454 101.924 278.376 102.113 278.267C102.307 278.158 102.404 277.969 102.404 277.699V277.642C102.404 276.941 102.212 276.397 101.829 276.009C101.45 275.62 100.875 275.426 100.103 275.426C99.3028 275.426 98.6754 275.601 98.2209 275.952C97.7663 276.302 97.4467 276.676 97.2621 277.074L95.6712 276.506C95.9553 275.843 96.334 275.327 96.8075 274.957C97.2857 274.583 97.8066 274.323 98.37 274.176C98.9382 274.025 99.4969 273.949 100.046 273.949C100.397 273.949 100.799 273.991 101.254 274.077C101.713 274.157 102.156 274.325 102.582 274.581C103.013 274.837 103.37 275.223 103.654 275.739C103.938 276.255 104.08 276.946 104.08 277.812V285H102.404V283.523H102.319C102.205 283.759 102.016 284.013 101.751 284.283C101.486 284.553 101.133 284.782 100.692 284.972C100.252 285.161 99.7147 285.256 99.0803 285.256ZM99.3359 283.75C99.9988 283.75 100.558 283.62 101.012 283.359C101.471 283.099 101.817 282.763 102.049 282.351C102.286 281.939 102.404 281.506 102.404 281.051V279.517C102.333 279.602 102.177 279.68 101.935 279.751C101.699 279.818 101.424 279.877 101.112 279.929C100.804 279.976 100.503 280.019 100.21 280.057C99.9207 280.09 99.6863 280.118 99.5064 280.142C99.0708 280.199 98.6636 280.291 98.2848 280.419C97.9107 280.542 97.6077 280.729 97.3757 280.98C97.1484 281.226 97.0348 281.562 97.0348 281.989C97.0348 282.571 97.2502 283.011 97.6811 283.31C98.1167 283.603 98.6683 283.75 99.3359 283.75ZM111.571 285.227C110.549 285.227 109.668 284.986 108.929 284.503C108.191 284.02 107.623 283.355 107.225 282.507C106.827 281.66 106.628 280.691 106.628 279.602C106.628 278.494 106.832 277.517 107.239 276.669C107.651 275.817 108.224 275.152 108.958 274.673C109.696 274.19 110.558 273.949 111.543 273.949C112.31 273.949 113.001 274.091 113.617 274.375C114.232 274.659 114.737 275.057 115.13 275.568C115.523 276.08 115.766 276.676 115.861 277.358H114.185C114.057 276.861 113.773 276.42 113.333 276.037C112.897 275.649 112.31 275.455 111.571 275.455C110.918 275.455 110.345 275.625 109.853 275.966C109.365 276.302 108.984 276.778 108.709 277.393C108.439 278.004 108.304 278.722 108.304 279.545C108.304 280.388 108.437 281.122 108.702 281.747C108.972 282.372 109.351 282.857 109.838 283.203C110.331 283.549 110.908 283.722 111.571 283.722C112.007 283.722 112.402 283.646 112.757 283.494C113.113 283.343 113.413 283.125 113.659 282.841C113.906 282.557 114.081 282.216 114.185 281.818H115.861C115.766 282.462 115.532 283.042 115.158 283.558C114.789 284.07 114.299 284.477 113.688 284.78C113.082 285.078 112.376 285.227 111.571 285.227ZM117.452 275.653V274.091H126.316V275.653H122.736V285H121.06V275.653H117.452ZM128.761 285V274.091H133.221C134.395 274.091 135.328 274.356 136.019 274.886C136.71 275.417 137.056 276.117 137.056 276.989C137.056 277.652 136.86 278.165 136.467 278.53C136.074 278.89 135.569 279.134 134.954 279.261C135.356 279.318 135.747 279.46 136.126 279.688C136.509 279.915 136.826 280.227 137.077 280.625C137.328 281.018 137.454 281.501 137.454 282.074C137.454 282.633 137.312 283.132 137.028 283.572C136.744 284.013 136.336 284.361 135.806 284.616C135.276 284.872 134.641 285 133.903 285H128.761ZM130.352 283.466H133.903C134.48 283.466 134.933 283.329 135.259 283.054C135.586 282.779 135.749 282.405 135.749 281.932C135.749 281.368 135.586 280.926 135.259 280.604C134.933 280.277 134.48 280.114 133.903 280.114H130.352V283.466ZM130.352 278.665H133.221C133.671 278.665 134.057 278.603 134.379 278.48C134.701 278.352 134.947 278.172 135.117 277.94C135.292 277.704 135.38 277.424 135.38 277.102C135.38 276.643 135.188 276.283 134.805 276.023C134.421 275.758 133.893 275.625 133.221 275.625H130.352V278.665ZM144.423 285.227C143.438 285.227 142.574 284.993 141.831 284.524C141.092 284.055 140.514 283.4 140.098 282.557C139.686 281.714 139.48 280.729 139.48 279.602C139.48 278.466 139.686 277.474 140.098 276.626C140.514 275.779 141.092 275.121 141.831 274.652C142.574 274.183 143.438 273.949 144.423 273.949C145.408 273.949 146.27 274.183 147.008 274.652C147.752 275.121 148.329 275.779 148.741 276.626C149.158 277.474 149.366 278.466 149.366 279.602C149.366 280.729 149.158 281.714 148.741 282.557C148.329 283.4 147.752 284.055 147.008 284.524C146.27 284.993 145.408 285.227 144.423 285.227ZM144.423 283.722C145.171 283.722 145.787 283.53 146.27 283.146C146.752 282.763 147.11 282.259 147.342 281.634C147.574 281.009 147.69 280.331 147.69 279.602C147.69 278.873 147.574 278.194 147.342 277.564C147.11 276.934 146.752 276.425 146.27 276.037C145.787 275.649 145.171 275.455 144.423 275.455C143.675 275.455 143.059 275.649 142.576 276.037C142.093 276.425 141.736 276.934 141.504 277.564C141.272 278.194 141.156 278.873 141.156 279.602C141.156 280.331 141.272 281.009 141.504 281.634C141.736 282.259 142.093 282.763 142.576 283.146C143.059 283.53 143.675 283.722 144.423 283.722ZM151.925 285V274.091H156.385C157.559 274.091 158.492 274.356 159.183 274.886C159.875 275.417 160.22 276.117 160.22 276.989C160.22 277.652 160.024 278.165 159.631 278.53C159.238 278.89 158.733 279.134 158.118 279.261C158.52 279.318 158.911 279.46 159.29 279.688C159.673 279.915 159.991 280.227 160.241 280.625C160.492 281.018 160.618 281.501 160.618 282.074C160.618 282.633 160.476 283.132 160.192 283.572C159.908 284.013 159.5 284.361 158.97 284.616C158.44 284.872 157.805 285 157.067 285H151.925ZM153.516 283.466H157.067C157.644 283.466 158.097 283.329 158.423 283.054C158.75 282.779 158.913 282.405 158.913 281.932C158.913 281.368 158.75 280.926 158.423 280.604C158.097 280.277 157.644 280.114 157.067 280.114H153.516V283.466ZM153.516 278.665H156.385C156.835 278.665 157.221 278.603 157.543 278.48C157.865 278.352 158.111 278.172 158.281 277.94C158.456 277.704 158.544 277.424 158.544 277.102C158.544 276.643 158.352 276.283 157.969 276.023C157.585 275.758 157.057 275.625 156.385 275.625H153.516V278.665ZM166.365 285.256C165.674 285.256 165.047 285.125 164.483 284.865C163.92 284.6 163.472 284.219 163.141 283.722C162.81 283.22 162.644 282.614 162.644 281.903C162.644 281.278 162.767 280.772 163.013 280.384C163.259 279.991 163.588 279.683 164 279.46C164.412 279.238 164.867 279.072 165.364 278.963C165.866 278.849 166.37 278.759 166.877 278.693C167.54 278.608 168.077 278.544 168.489 278.501C168.906 278.454 169.209 278.376 169.398 278.267C169.592 278.158 169.689 277.969 169.689 277.699V277.642C169.689 276.941 169.498 276.397 169.114 276.009C168.735 275.62 168.16 275.426 167.388 275.426C166.588 275.426 165.961 275.601 165.506 275.952C165.051 276.302 164.732 276.676 164.547 277.074L162.956 276.506C163.24 275.843 163.619 275.327 164.093 274.957C164.571 274.583 165.092 274.323 165.655 274.176C166.223 274.025 166.782 273.949 167.331 273.949C167.682 273.949 168.084 273.991 168.539 274.077C168.998 274.157 169.441 274.325 169.867 274.581C170.298 274.837 170.655 275.223 170.939 275.739C171.223 276.255 171.365 276.946 171.365 277.812V285H169.689V283.523H169.604C169.49 283.759 169.301 284.013 169.036 284.283C168.771 284.553 168.418 284.782 167.978 284.972C167.537 285.161 167 285.256 166.365 285.256ZM166.621 283.75C167.284 283.75 167.843 283.62 168.297 283.359C168.757 283.099 169.102 282.763 169.334 282.351C169.571 281.939 169.689 281.506 169.689 281.051V279.517C169.618 279.602 169.462 279.68 169.221 279.751C168.984 279.818 168.709 279.877 168.397 279.929C168.089 279.976 167.788 280.019 167.495 280.057C167.206 280.09 166.971 280.118 166.792 280.142C166.356 280.199 165.949 280.291 165.57 280.419C165.196 280.542 164.893 280.729 164.661 280.98C164.434 281.226 164.32 281.562 164.32 281.989C164.32 282.571 164.535 283.011 164.966 283.31C165.402 283.603 165.953 283.75 166.621 283.75ZM172.94 275.653V274.091H181.804V275.653H178.224V285H176.548V275.653H172.94ZM185.698 278.04H188.823C190.101 278.04 191.079 278.364 191.756 279.013C192.433 279.661 192.772 280.483 192.772 281.477C192.772 282.131 192.62 282.725 192.317 283.26C192.014 283.79 191.569 284.214 190.982 284.531C190.395 284.844 189.675 285 188.823 285H184.249V274.091H185.925V283.438H188.823C189.486 283.438 190.03 283.262 190.456 282.912C190.882 282.562 191.096 282.112 191.096 281.562C191.096 280.985 190.882 280.514 190.456 280.149C190.03 279.785 189.486 279.602 188.823 279.602H185.698V278.04ZM210.167 285L209.073 283.92L213.576 279.418H201.914V277.855H213.576L209.073 273.366L210.167 272.273L216.531 278.636L210.167 285Z" fill="white"/>
</svg>
