<svg width="460" height="300" viewBox="0 0 460 300" fill="none" xmlns="http://www.w3.org/2000/svg">
<rect width="460" height="300" rx="20" fill="#1B1B1B"/>
<path d="M186.727 139.455V141.017H179.71V154H177.949V139.455H186.727ZM189.453 154V139.455H194.368C195.509 139.455 196.441 139.661 197.166 140.072C197.895 140.48 198.435 141.031 198.785 141.727C199.136 142.423 199.311 143.2 199.311 144.057C199.311 144.914 199.136 145.693 198.785 146.393C198.44 147.094 197.904 147.653 197.18 148.07C196.456 148.482 195.528 148.688 194.396 148.688H190.873V147.125H194.339C195.12 147.125 195.748 146.99 196.221 146.72C196.695 146.45 197.038 146.086 197.251 145.626C197.469 145.162 197.578 144.639 197.578 144.057C197.578 143.474 197.469 142.954 197.251 142.494C197.038 142.035 196.692 141.675 196.214 141.415C195.736 141.15 195.101 141.017 194.311 141.017H191.214V154H189.453ZM202.915 154.199V152.551H203.824C204.175 152.551 204.468 152.482 204.705 152.345C204.946 152.208 205.145 152.03 205.301 151.812C205.462 151.595 205.595 151.367 205.699 151.131L205.926 150.591L200.898 139.455H202.801L206.807 148.489L210.472 139.455H212.347L207.319 151.642C207.12 152.097 206.892 152.518 206.637 152.906C206.386 153.295 206.042 153.607 205.607 153.844C205.176 154.08 204.591 154.199 203.853 154.199H202.915ZM225.509 139.455V154H223.748V141.017H216.418V154H214.657V139.455H225.509ZM239.943 139.455V154H238.181V141.017H230.852V154H229.091V139.455H239.943ZM244.092 154H242.246L247.587 139.455H249.405L254.746 154H252.899L248.553 141.756H248.439L244.092 154ZM244.774 148.318H252.217V149.881H244.774V148.318ZM262.636 154V139.455H267.722C268.735 139.455 269.571 139.63 270.229 139.98C270.887 140.326 271.377 140.792 271.699 141.379C272.021 141.962 272.182 142.608 272.182 143.318C272.182 143.943 272.071 144.459 271.848 144.866C271.63 145.274 271.341 145.596 270.982 145.832C270.626 146.069 270.241 146.244 269.824 146.358V146.5C270.269 146.528 270.716 146.685 271.166 146.969C271.616 147.253 271.992 147.66 272.295 148.19C272.598 148.721 272.75 149.369 272.75 150.136C272.75 150.866 272.584 151.521 272.253 152.104C271.921 152.686 271.398 153.148 270.683 153.489C269.968 153.83 269.038 154 267.892 154H262.636ZM264.398 152.438H267.892C269.043 152.438 269.859 152.215 270.342 151.77C270.83 151.32 271.074 150.776 271.074 150.136C271.074 149.644 270.948 149.189 270.697 148.773C270.446 148.351 270.089 148.015 269.625 147.764C269.161 147.509 268.612 147.381 267.977 147.381H264.398V152.438ZM264.398 145.847H267.665C268.195 145.847 268.673 145.742 269.099 145.534C269.53 145.326 269.871 145.032 270.122 144.653C270.378 144.275 270.506 143.83 270.506 143.318C270.506 142.679 270.283 142.137 269.838 141.692C269.393 141.242 268.688 141.017 267.722 141.017H264.398V145.847ZM284.195 154L279.195 147.324H277.406V154H275.644V139.455H277.406V145.761H278.173L283.996 139.455H286.099L280.218 145.847L286.298 154H284.195Z" fill="white"/>
<path d="M28.685 260.455V275H26.9237V262.017H19.5941V275H17.8327V260.455H28.685ZM36.5845 275.227C35.5334 275.227 34.6267 274.995 33.8643 274.531C33.1068 274.062 32.522 273.409 32.1101 272.571C31.7029 271.728 31.4993 270.748 31.4993 269.631C31.4993 268.513 31.7029 267.528 32.1101 266.676C32.522 265.819 33.0949 265.152 33.8288 264.673C34.5675 264.19 35.4292 263.949 36.4141 263.949C36.9822 263.949 37.5433 264.044 38.0973 264.233C38.6513 264.422 39.1555 264.73 39.6101 265.156C40.0646 265.578 40.4268 266.136 40.6967 266.832C40.9666 267.528 41.1016 268.385 41.1016 269.403V270.114H32.6925V268.665H39.397C39.397 268.049 39.2739 267.5 39.0277 267.017C38.7862 266.534 38.4406 266.153 37.9908 265.874C37.5457 265.594 37.0201 265.455 36.4141 265.455C35.7464 265.455 35.1688 265.62 34.6811 265.952C34.1982 266.278 33.8265 266.705 33.5661 267.23C33.3056 267.756 33.1754 268.319 33.1754 268.92V269.886C33.1754 270.71 33.3175 271.409 33.6016 271.982C33.8904 272.55 34.2905 272.983 34.8018 273.281C35.3132 273.575 35.9074 273.722 36.5845 273.722C37.0249 273.722 37.4226 273.66 37.7777 273.537C38.1375 273.409 38.4477 273.22 38.7081 272.969C38.9685 272.713 39.1697 272.396 39.3118 272.017L40.9311 272.472C40.7607 273.021 40.4742 273.504 40.0717 273.92C39.6693 274.332 39.1721 274.654 38.5803 274.886C37.9884 275.114 37.3232 275.227 36.5845 275.227ZM43.6513 279.091V264.091H45.2706V265.824H45.4695C45.5926 265.634 45.763 265.393 45.9808 265.099C46.2034 264.801 46.5206 264.536 46.9325 264.304C47.3492 264.067 47.9126 263.949 48.6229 263.949C49.5414 263.949 50.3511 264.179 51.0518 264.638C51.7526 265.097 52.2995 265.748 52.6925 266.591C53.0855 267.434 53.282 268.428 53.282 269.574C53.282 270.729 53.0855 271.731 52.6925 272.578C52.2995 273.421 51.755 274.074 51.0589 274.538C50.3629 274.998 49.5604 275.227 48.6513 275.227C47.9505 275.227 47.3894 275.111 46.968 274.879C46.5466 274.643 46.2223 274.375 45.995 274.077C45.7678 273.774 45.5926 273.523 45.4695 273.324H45.3274V279.091H43.6513ZM45.299 269.545C45.299 270.369 45.4197 271.096 45.6612 271.726C45.9027 272.351 46.2554 272.841 46.7195 273.196C47.1835 273.546 47.7517 273.722 48.424 273.722C49.1248 273.722 49.7095 273.537 50.1783 273.168C50.6518 272.794 51.0069 272.292 51.2436 271.662C51.4851 271.027 51.6058 270.322 51.6058 269.545C51.6058 268.778 51.4875 268.087 51.2507 267.472C51.0187 266.851 50.666 266.361 50.1925 266.001C49.7237 265.637 49.1342 265.455 48.424 265.455C47.7422 265.455 47.1693 265.627 46.7053 265.973C46.2412 266.314 45.8909 266.792 45.6541 267.408C45.4174 268.018 45.299 268.731 45.299 269.545ZM60.4126 275.227C59.3615 275.227 58.4548 274.995 57.6925 274.531C56.9349 274.062 56.3501 273.409 55.9382 272.571C55.531 271.728 55.3274 270.748 55.3274 269.631C55.3274 268.513 55.531 267.528 55.9382 266.676C56.3501 265.819 56.9231 265.152 57.657 264.673C58.3956 264.19 59.2573 263.949 60.2422 263.949C60.8104 263.949 61.3714 264.044 61.9254 264.233C62.4794 264.422 62.9837 264.73 63.4382 265.156C63.8928 265.578 64.255 266.136 64.5249 266.832C64.7947 267.528 64.9297 268.385 64.9297 269.403V270.114H56.5206V268.665H63.2251C63.2251 268.049 63.102 267.5 62.8558 267.017C62.6143 266.534 62.2687 266.153 61.8189 265.874C61.3738 265.594 60.8482 265.455 60.2422 265.455C59.5746 265.455 58.9969 265.62 58.5092 265.952C58.0263 266.278 57.6546 266.705 57.3942 267.23C57.1338 267.756 57.0036 268.319 57.0036 268.92V269.886C57.0036 270.71 57.1456 271.409 57.4297 271.982C57.7185 272.55 58.1186 272.983 58.63 273.281C59.1413 273.575 59.7356 273.722 60.4126 273.722C60.853 273.722 61.2507 273.66 61.6058 273.537C61.9657 273.409 62.2758 273.22 62.5362 272.969C62.7966 272.713 62.9979 272.396 63.1399 272.017L64.7592 272.472C64.5888 273.021 64.3023 273.504 63.8999 273.92C63.4974 274.332 63.0002 274.654 62.4084 274.886C61.8165 275.114 61.1513 275.227 60.4126 275.227ZM69.1555 272.528L74.4112 264.091H76.343V275H74.6669V266.562L69.4396 275H67.4794V264.091H69.1555V272.528ZM73.3033 260.455H74.8658C74.8658 261.222 74.6006 261.849 74.0703 262.337C73.54 262.824 72.8203 263.068 71.9112 263.068C71.0163 263.068 70.3037 262.824 69.7734 262.337C69.2479 261.849 68.9851 261.222 68.9851 260.455H70.5476C70.5476 260.824 70.6494 261.148 70.853 261.428C71.0613 261.707 71.4141 261.847 71.9112 261.847C72.4084 261.847 72.7635 261.707 72.9766 261.428C73.1944 261.148 73.3033 260.824 73.3033 260.455ZM77.9286 265.653V264.091H86.7923V265.653H83.2127V275H81.5366V265.653H77.9286ZM90.9134 272.528L96.169 264.091H98.1009V275H96.4247V266.562L91.1974 275H89.2372V264.091H90.9134V272.528ZM106.796 275V264.091H111.256C112.43 264.091 113.363 264.356 114.054 264.886C114.746 265.417 115.091 266.117 115.091 266.989C115.091 267.652 114.895 268.165 114.502 268.53C114.109 268.89 113.605 269.134 112.989 269.261C113.391 269.318 113.782 269.46 114.161 269.688C114.544 269.915 114.862 270.227 115.113 270.625C115.364 271.018 115.489 271.501 115.489 272.074C115.489 272.633 115.347 273.132 115.063 273.572C114.779 274.013 114.372 274.361 113.841 274.616C113.311 274.872 112.676 275 111.938 275H106.796ZM108.387 273.466H111.938C112.516 273.466 112.968 273.329 113.294 273.054C113.621 272.779 113.784 272.405 113.784 271.932C113.784 271.368 113.621 270.926 113.294 270.604C112.968 270.277 112.516 270.114 111.938 270.114H108.387V273.466ZM108.387 268.665H111.256C111.706 268.665 112.092 268.603 112.414 268.48C112.736 268.352 112.982 268.172 113.152 267.94C113.328 267.704 113.415 267.424 113.415 267.102C113.415 266.643 113.223 266.283 112.84 266.023C112.456 265.758 111.928 265.625 111.256 265.625H108.387V268.665ZM130.384 264.091V265.653H125.327V275H123.651V264.091H130.384ZM132.831 279.091V264.091H134.45V265.824H134.649C134.772 265.634 134.943 265.393 135.161 265.099C135.383 264.801 135.7 264.536 136.112 264.304C136.529 264.067 137.092 263.949 137.803 263.949C138.721 263.949 139.531 264.179 140.232 264.638C140.932 265.097 141.479 265.748 141.872 266.591C142.265 267.434 142.462 268.428 142.462 269.574C142.462 270.729 142.265 271.731 141.872 272.578C141.479 273.421 140.935 274.074 140.239 274.538C139.543 274.998 138.74 275.227 137.831 275.227C137.13 275.227 136.569 275.111 136.148 274.879C135.726 274.643 135.402 274.375 135.175 274.077C134.947 273.774 134.772 273.523 134.649 273.324H134.507V279.091H132.831ZM134.479 269.545C134.479 270.369 134.599 271.096 134.841 271.726C135.082 272.351 135.435 272.841 135.899 273.196C136.363 273.546 136.931 273.722 137.604 273.722C138.304 273.722 138.889 273.537 139.358 273.168C139.831 272.794 140.187 272.292 140.423 271.662C140.665 271.027 140.786 270.322 140.786 269.545C140.786 268.778 140.667 268.087 140.43 267.472C140.198 266.851 139.846 266.361 139.372 266.001C138.903 265.637 138.314 265.455 137.604 265.455C136.922 265.455 136.349 265.627 135.885 265.973C135.421 266.314 135.071 266.792 134.834 267.408C134.597 268.018 134.479 268.731 134.479 269.545ZM145.707 279.091C145.423 279.091 145.17 279.067 144.947 279.02C144.725 278.977 144.571 278.935 144.486 278.892L144.912 277.415C145.319 277.519 145.679 277.557 145.991 277.528C146.304 277.5 146.581 277.36 146.822 277.109C147.069 276.863 147.294 276.463 147.497 275.909L147.81 275.057L143.776 264.091H145.594L148.605 272.784H148.719L151.73 264.091H153.548L148.918 276.591C148.709 277.154 148.451 277.621 148.143 277.99C147.836 278.364 147.478 278.641 147.071 278.821C146.669 279.001 146.214 279.091 145.707 279.091ZM155.761 275V264.091H164.34V275H162.664V265.653H157.437V275H155.761ZM167.401 275V264.091H175.981V275H174.305V265.653H169.077V275H167.401ZM179.731 279.091C179.447 279.091 179.193 279.067 178.971 279.02C178.748 278.977 178.594 278.935 178.509 278.892L178.935 277.415C179.343 277.519 179.702 277.557 180.015 277.528C180.327 277.5 180.604 277.36 180.846 277.109C181.092 276.863 181.317 276.463 181.521 275.909L181.833 275.057L177.799 264.091H179.617L182.629 272.784H182.742L185.754 264.091H187.572L182.941 276.591C182.733 277.154 182.475 277.621 182.167 277.99C181.859 278.364 181.502 278.641 181.094 278.821C180.692 279.001 180.237 279.091 179.731 279.091ZM204.628 275L203.534 273.92L208.037 269.418H196.375V267.855H208.037L203.534 263.366L204.628 262.273L210.991 268.636L204.628 275Z" fill="white"/>
</svg>
