<svg width="580" height="310" viewBox="0 0 580 310" fill="none" xmlns="http://www.w3.org/2000/svg">
<rect width="580" height="310" rx="20" fill="#1B1B1B"/>
<path d="M183.354 162L178.354 155.324H176.564V162H174.802V147.455H176.564V153.761H177.331L183.155 147.455H185.257L179.376 153.847L185.456 162H183.354ZM187.732 147.455H189.465V158.903H189.607L197.562 147.455H199.266V162H197.505V150.58H197.363L189.437 162H187.732V147.455ZM202.791 162V147.455H211.569V149.017H204.552V153.562H208.245C209.287 153.562 210.165 153.733 210.88 154.074C211.6 154.415 212.144 154.895 212.514 155.516C212.888 156.136 213.075 156.867 213.075 157.71C213.075 158.553 212.888 159.296 212.514 159.94C212.144 160.584 211.6 161.089 210.88 161.453C210.165 161.818 209.287 162 208.245 162H202.791ZM204.552 160.466H208.245C208.908 160.466 209.469 160.333 209.928 160.068C210.392 159.798 210.743 159.453 210.98 159.031C211.221 158.605 211.342 158.155 211.342 157.682C211.342 156.986 211.074 156.387 210.539 155.885C210.004 155.378 209.24 155.125 208.245 155.125H204.552V160.466ZM215.974 162V147.455H224.753V149.017H217.736V153.932H224.298V155.494H217.736V160.438H224.866V162H215.974ZM227.927 162V147.455H232.842C233.983 147.455 234.916 147.661 235.64 148.072C236.37 148.48 236.909 149.031 237.26 149.727C237.61 150.423 237.785 151.2 237.785 152.057C237.785 152.914 237.61 153.693 237.26 154.393C236.914 155.094 236.379 155.653 235.655 156.07C234.93 156.482 234.002 156.688 232.871 156.688H229.348V155.125H232.814C233.595 155.125 234.222 154.99 234.696 154.72C235.169 154.45 235.513 154.086 235.726 153.626C235.943 153.162 236.052 152.639 236.052 152.057C236.052 151.474 235.943 150.954 235.726 150.494C235.513 150.035 235.167 149.675 234.689 149.415C234.211 149.15 233.576 149.017 232.785 149.017H229.689V162H227.927ZM245.623 149.188H247.924C249.003 149.188 249.962 149.429 250.8 149.912C251.638 150.395 252.296 151.067 252.775 151.929C253.253 152.791 253.492 153.79 253.492 154.926C253.492 156.062 253.253 157.064 252.775 157.93C252.296 158.797 251.638 159.474 250.8 159.962C249.962 160.449 249.003 160.693 247.924 160.693H245.623C244.543 160.693 243.584 160.452 242.746 159.969C241.908 159.486 241.25 158.813 240.772 157.952C240.294 157.09 240.055 156.091 240.055 154.955C240.055 153.818 240.294 152.817 240.772 151.95C241.25 151.084 241.908 150.407 242.746 149.919C243.584 149.431 244.543 149.188 245.623 149.188ZM245.623 150.75C244.799 150.75 244.103 150.923 243.535 151.268C242.971 151.614 242.543 152.102 242.249 152.732C241.96 153.361 241.816 154.102 241.816 154.955C241.816 155.797 241.96 156.531 242.249 157.156C242.543 157.781 242.971 158.267 243.535 158.612C244.103 158.958 244.799 159.131 245.623 159.131H247.924C248.748 159.131 249.441 158.958 250.005 158.612C250.573 158.267 251.001 157.779 251.29 157.149C251.584 156.519 251.731 155.778 251.731 154.926C251.731 154.083 251.584 153.349 251.29 152.724C251.001 152.099 250.573 151.614 250.005 151.268C249.441 150.923 248.748 150.75 247.924 150.75H245.623ZM247.668 147.199V162.597H245.907V147.199H247.668ZM256.443 147.455H258.176V158.903H258.318L266.273 147.455H267.977V162H266.216V150.58H266.074L258.148 162H256.443V147.455ZM280.053 162L275.053 155.324H273.263V162H271.502V147.455H273.263V153.761H274.03L279.854 147.455H281.956L276.075 153.847L282.155 162H280.053ZM285.028 162H283.181L288.522 147.455H290.34L295.681 162H293.835L289.488 149.756H289.374L285.028 162ZM285.71 156.318H293.153V157.881H285.71V156.318ZM310.305 160.324L310.106 165.438H308.288V162H307.265V160.324H310.305ZM297.947 162V147.455H299.623V160.381H307.123V147.455H308.799V162H297.947ZM312.966 147.455H314.699V158.903H314.841L322.796 147.455H324.501V162H322.739V150.58H322.597L314.671 162H312.966V147.455ZM337.911 162H336.15V149.017H333.053C332.267 149.017 331.635 149.138 331.157 149.379C330.679 149.616 330.331 149.952 330.113 150.388C329.895 150.823 329.786 151.332 329.786 151.915C329.786 152.497 329.893 152.999 330.106 153.42C330.324 153.837 330.669 154.159 331.143 154.386C331.621 154.614 332.249 154.727 333.025 154.727H336.945V156.318H332.968C331.841 156.318 330.916 156.131 330.191 155.757C329.467 155.378 328.929 154.857 328.579 154.195C328.229 153.532 328.053 152.772 328.053 151.915C328.053 151.058 328.229 150.293 328.579 149.621C328.929 148.948 329.469 148.42 330.198 148.037C330.927 147.649 331.86 147.455 332.997 147.455H337.911V162ZM331.065 155.466H333.053L329.531 162H327.485L331.065 155.466ZM351.557 162H347.068V147.455H351.756C353.166 147.455 354.374 147.746 355.378 148.328C356.381 148.906 357.151 149.737 357.686 150.821C358.221 151.901 358.488 153.193 358.488 154.699C358.488 156.214 358.219 157.518 357.679 158.612C357.139 159.701 356.353 160.539 355.321 161.126C354.289 161.709 353.034 162 351.557 162ZM348.829 160.438H351.443C352.646 160.438 353.642 160.205 354.433 159.741C355.224 159.277 355.813 158.617 356.202 157.76C356.59 156.903 356.784 155.883 356.784 154.699C356.784 153.525 356.592 152.514 356.209 151.666C355.825 150.814 355.252 150.161 354.49 149.706C353.728 149.247 352.778 149.017 351.642 149.017H348.829V160.438ZM373.716 154.727C373.716 156.261 373.439 157.587 372.885 158.705C372.331 159.822 371.571 160.684 370.605 161.29C369.639 161.896 368.536 162.199 367.295 162.199C366.055 162.199 364.952 161.896 363.986 161.29C363.02 160.684 362.26 159.822 361.706 158.705C361.152 157.587 360.875 156.261 360.875 154.727C360.875 153.193 361.152 151.867 361.706 150.75C362.26 149.633 363.02 148.771 363.986 148.165C364.952 147.559 366.055 147.256 367.295 147.256C368.536 147.256 369.639 147.559 370.605 148.165C371.571 148.771 372.331 149.633 372.885 150.75C373.439 151.867 373.716 153.193 373.716 154.727ZM372.011 154.727C372.011 153.468 371.8 152.405 371.379 151.538C370.962 150.672 370.397 150.016 369.682 149.571C368.971 149.126 368.176 148.903 367.295 148.903C366.415 148.903 365.617 149.126 364.902 149.571C364.192 150.016 363.626 150.672 363.204 151.538C362.788 152.405 362.579 153.468 362.579 154.727C362.579 155.987 362.788 157.05 363.204 157.916C363.626 158.783 364.192 159.438 364.902 159.884C365.617 160.329 366.415 160.551 367.295 160.551C368.176 160.551 368.971 160.329 369.682 159.884C370.397 159.438 370.962 158.783 371.379 157.916C371.8 157.05 372.011 155.987 372.011 154.727ZM375.276 149.017V147.455H386.186V149.017H381.612V162H379.85V149.017H375.276ZM387.801 162H385.955L391.296 147.455H393.114L398.455 162H396.608L392.262 149.756H392.148L387.801 162ZM388.483 156.318H395.926V157.881H388.483V156.318Z" fill="white"/>
<path d="M22.6136 254.455L26.3636 260.506H26.4773L30.2273 254.455H32.3011L27.7273 261.727L32.3011 269H30.2273L26.4773 263.062H26.3636L22.6136 269H20.5398L25.2273 261.727L20.5398 254.455H22.6136ZM38.2315 269.227C37.2467 269.227 36.3826 268.993 35.6392 268.524C34.9006 268.055 34.3229 267.4 33.9062 266.557C33.4943 265.714 33.2884 264.729 33.2884 263.602C33.2884 262.466 33.4943 261.474 33.9062 260.626C34.3229 259.779 34.9006 259.121 35.6392 258.652C36.3826 258.183 37.2467 257.949 38.2315 257.949C39.2164 257.949 40.0781 258.183 40.8168 258.652C41.5601 259.121 42.1378 259.779 42.5497 260.626C42.9664 261.474 43.1747 262.466 43.1747 263.602C43.1747 264.729 42.9664 265.714 42.5497 266.557C42.1378 267.4 41.5601 268.055 40.8168 268.524C40.0781 268.993 39.2164 269.227 38.2315 269.227ZM38.2315 267.722C38.9796 267.722 39.5952 267.53 40.0781 267.146C40.5611 266.763 40.9186 266.259 41.1506 265.634C41.3826 265.009 41.4986 264.331 41.4986 263.602C41.4986 262.873 41.3826 262.194 41.1506 261.564C40.9186 260.934 40.5611 260.425 40.0781 260.037C39.5952 259.649 38.9796 259.455 38.2315 259.455C37.4834 259.455 36.8679 259.649 36.3849 260.037C35.902 260.425 35.5445 260.934 35.3125 261.564C35.0805 262.194 34.9645 262.873 34.9645 263.602C34.9645 264.331 35.0805 265.009 35.3125 265.634C35.5445 266.259 35.902 266.763 36.3849 267.146C36.8679 267.53 37.4834 267.722 38.2315 267.722ZM54.1424 258.091V269H52.4663V258.091H54.1424ZM53.489 263.29V264.852C53.1102 264.994 52.7338 265.12 52.3597 265.229C51.9857 265.333 51.5927 265.416 51.1808 265.477C50.7688 265.534 50.3166 265.562 49.8242 265.562C48.5884 265.562 47.5965 265.229 46.8484 264.561C46.105 263.893 45.7333 262.892 45.7333 261.557V258.062H47.4094V261.557C47.4094 262.116 47.516 262.575 47.729 262.935C47.9421 263.295 48.2309 263.562 48.5955 263.737C48.9601 263.912 49.3697 264 49.8242 264C50.5344 264 51.176 263.936 51.7489 263.808C52.3266 263.676 52.9066 263.503 53.489 263.29ZM57.9066 273.091C57.6225 273.091 57.3692 273.067 57.1467 273.02C56.9241 272.977 56.7702 272.935 56.685 272.892L57.1112 271.415C57.5183 271.519 57.8782 271.557 58.1907 271.528C58.5032 271.5 58.7802 271.36 59.0217 271.109C59.2679 270.863 59.4928 270.463 59.6964 269.909L60.0089 269.057L55.9748 258.091H57.793L60.8043 266.784H60.918L63.9293 258.091H65.7475L61.1168 270.591C60.9085 271.154 60.6504 271.621 60.3427 271.99C60.0349 272.364 59.6774 272.641 59.2702 272.821C58.8678 273.001 58.4132 273.091 57.9066 273.091ZM74.6644 273.091C74.3803 273.091 74.127 273.067 73.9045 273.02C73.6819 272.977 73.5281 272.935 73.4428 272.892L73.869 271.415C74.2762 271.519 74.636 271.557 74.9485 271.528C75.261 271.5 75.538 271.36 75.7795 271.109C76.0257 270.863 76.2506 270.463 76.4542 269.909L76.7667 269.057L72.7326 258.091H74.5508L77.5621 266.784H77.6758L80.6871 258.091H82.5053L77.8746 270.591C77.6663 271.154 77.4083 271.621 77.1005 271.99C76.7927 272.364 76.4353 272.641 76.0281 272.821C75.6256 273.001 75.171 273.091 74.6644 273.091ZM92.7947 258.091V269H91.1186V258.091H92.7947ZM92.1413 263.29V264.852C91.7625 264.994 91.3861 265.12 91.0121 265.229C90.638 265.333 90.245 265.416 89.8331 265.477C89.4212 265.534 88.969 265.562 88.4766 265.562C87.2408 265.562 86.2488 265.229 85.5007 264.561C84.7573 263.893 84.3857 262.892 84.3857 261.557V258.062H86.0618V261.557C86.0618 262.116 86.1683 262.575 86.3814 262.935C86.5945 263.295 86.8833 263.562 87.2479 263.737C87.6125 263.912 88.022 264 88.4766 264C89.1868 264 89.8284 263.936 90.4013 263.808C90.9789 263.676 91.5589 263.503 92.1413 263.29ZM99.0803 269.256C98.389 269.256 97.7616 269.125 97.1982 268.865C96.6347 268.6 96.1873 268.219 95.8558 267.722C95.5244 267.22 95.3587 266.614 95.3587 265.903C95.3587 265.278 95.4818 264.772 95.728 264.384C95.9742 263.991 96.3033 263.683 96.7152 263.46C97.1271 263.238 97.5817 263.072 98.0788 262.963C98.5807 262.849 99.085 262.759 99.5916 262.693C100.254 262.608 100.792 262.544 101.204 262.501C101.621 262.454 101.924 262.376 102.113 262.267C102.307 262.158 102.404 261.969 102.404 261.699V261.642C102.404 260.941 102.212 260.397 101.829 260.009C101.45 259.62 100.875 259.426 100.103 259.426C99.3028 259.426 98.6754 259.601 98.2209 259.952C97.7663 260.302 97.4467 260.676 97.2621 261.074L95.6712 260.506C95.9553 259.843 96.334 259.327 96.8075 258.957C97.2857 258.583 97.8066 258.323 98.37 258.176C98.9382 258.025 99.4969 257.949 100.046 257.949C100.397 257.949 100.799 257.991 101.254 258.077C101.713 258.157 102.156 258.325 102.582 258.581C103.013 258.837 103.37 259.223 103.654 259.739C103.938 260.255 104.08 260.946 104.08 261.812V269H102.404V267.523H102.319C102.205 267.759 102.016 268.013 101.751 268.283C101.486 268.553 101.133 268.782 100.692 268.972C100.252 269.161 99.7147 269.256 99.0803 269.256ZM99.3359 267.75C99.9988 267.75 100.558 267.62 101.012 267.359C101.471 267.099 101.817 266.763 102.049 266.351C102.286 265.939 102.404 265.506 102.404 265.051V263.517C102.333 263.602 102.177 263.68 101.935 263.751C101.699 263.818 101.424 263.877 101.112 263.929C100.804 263.976 100.503 264.019 100.21 264.057C99.9207 264.09 99.6863 264.118 99.5064 264.142C99.0708 264.199 98.6636 264.291 98.2848 264.419C97.9107 264.542 97.6077 264.729 97.3757 264.98C97.1484 265.226 97.0348 265.562 97.0348 265.989C97.0348 266.571 97.2502 267.011 97.6811 267.31C98.1167 267.603 98.6683 267.75 99.3359 267.75ZM111.571 269.227C110.549 269.227 109.668 268.986 108.929 268.503C108.191 268.02 107.623 267.355 107.225 266.507C106.827 265.66 106.628 264.691 106.628 263.602C106.628 262.494 106.832 261.517 107.239 260.669C107.651 259.817 108.224 259.152 108.958 258.673C109.696 258.19 110.558 257.949 111.543 257.949C112.31 257.949 113.001 258.091 113.617 258.375C114.232 258.659 114.737 259.057 115.13 259.568C115.523 260.08 115.766 260.676 115.861 261.358H114.185C114.057 260.861 113.773 260.42 113.333 260.037C112.897 259.649 112.31 259.455 111.571 259.455C110.918 259.455 110.345 259.625 109.853 259.966C109.365 260.302 108.984 260.778 108.709 261.393C108.439 262.004 108.304 262.722 108.304 263.545C108.304 264.388 108.437 265.122 108.702 265.747C108.972 266.372 109.351 266.857 109.838 267.203C110.331 267.549 110.908 267.722 111.571 267.722C112.007 267.722 112.402 267.646 112.757 267.494C113.113 267.343 113.413 267.125 113.659 266.841C113.906 266.557 114.081 266.216 114.185 265.818H115.861C115.766 266.462 115.532 267.042 115.158 267.558C114.789 268.07 114.299 268.477 113.688 268.78C113.082 269.078 112.376 269.227 111.571 269.227ZM117.452 259.653V258.091H126.316V259.653H122.736V269H121.06V259.653H117.452ZM128.761 269V258.091H133.221C134.395 258.091 135.328 258.356 136.019 258.886C136.71 259.417 137.056 260.117 137.056 260.989C137.056 261.652 136.86 262.165 136.467 262.53C136.074 262.89 135.569 263.134 134.954 263.261C135.356 263.318 135.747 263.46 136.126 263.688C136.509 263.915 136.826 264.227 137.077 264.625C137.328 265.018 137.454 265.501 137.454 266.074C137.454 266.633 137.312 267.132 137.028 267.572C136.744 268.013 136.336 268.361 135.806 268.616C135.276 268.872 134.641 269 133.903 269H128.761ZM130.352 267.466H133.903C134.48 267.466 134.933 267.329 135.259 267.054C135.586 266.779 135.749 266.405 135.749 265.932C135.749 265.368 135.586 264.926 135.259 264.604C134.933 264.277 134.48 264.114 133.903 264.114H130.352V267.466ZM130.352 262.665H133.221C133.671 262.665 134.057 262.603 134.379 262.48C134.701 262.352 134.947 262.172 135.117 261.94C135.292 261.704 135.38 261.424 135.38 261.102C135.38 260.643 135.188 260.283 134.805 260.023C134.421 259.758 133.893 259.625 133.221 259.625H130.352V262.665ZM144.423 269.227C143.438 269.227 142.574 268.993 141.831 268.524C141.092 268.055 140.514 267.4 140.098 266.557C139.686 265.714 139.48 264.729 139.48 263.602C139.48 262.466 139.686 261.474 140.098 260.626C140.514 259.779 141.092 259.121 141.831 258.652C142.574 258.183 143.438 257.949 144.423 257.949C145.408 257.949 146.27 258.183 147.008 258.652C147.752 259.121 148.329 259.779 148.741 260.626C149.158 261.474 149.366 262.466 149.366 263.602C149.366 264.729 149.158 265.714 148.741 266.557C148.329 267.4 147.752 268.055 147.008 268.524C146.27 268.993 145.408 269.227 144.423 269.227ZM144.423 267.722C145.171 267.722 145.787 267.53 146.27 267.146C146.752 266.763 147.11 266.259 147.342 265.634C147.574 265.009 147.69 264.331 147.69 263.602C147.69 262.873 147.574 262.194 147.342 261.564C147.11 260.934 146.752 260.425 146.27 260.037C145.787 259.649 145.171 259.455 144.423 259.455C143.675 259.455 143.059 259.649 142.576 260.037C142.093 260.425 141.736 260.934 141.504 261.564C141.272 262.194 141.156 262.873 141.156 263.602C141.156 264.331 141.272 265.009 141.504 265.634C141.736 266.259 142.093 266.763 142.576 267.146C143.059 267.53 143.675 267.722 144.423 267.722ZM151.925 269V258.091H156.385C157.559 258.091 158.492 258.356 159.183 258.886C159.875 259.417 160.22 260.117 160.22 260.989C160.22 261.652 160.024 262.165 159.631 262.53C159.238 262.89 158.733 263.134 158.118 263.261C158.52 263.318 158.911 263.46 159.29 263.688C159.673 263.915 159.991 264.227 160.241 264.625C160.492 265.018 160.618 265.501 160.618 266.074C160.618 266.633 160.476 267.132 160.192 267.572C159.908 268.013 159.5 268.361 158.97 268.616C158.44 268.872 157.805 269 157.067 269H151.925ZM153.516 267.466H157.067C157.644 267.466 158.097 267.329 158.423 267.054C158.75 266.779 158.913 266.405 158.913 265.932C158.913 265.368 158.75 264.926 158.423 264.604C158.097 264.277 157.644 264.114 157.067 264.114H153.516V267.466ZM153.516 262.665H156.385C156.835 262.665 157.221 262.603 157.543 262.48C157.865 262.352 158.111 262.172 158.281 261.94C158.456 261.704 158.544 261.424 158.544 261.102C158.544 260.643 158.352 260.283 157.969 260.023C157.585 259.758 157.057 259.625 156.385 259.625H153.516V262.665ZM166.365 269.256C165.674 269.256 165.047 269.125 164.483 268.865C163.92 268.6 163.472 268.219 163.141 267.722C162.81 267.22 162.644 266.614 162.644 265.903C162.644 265.278 162.767 264.772 163.013 264.384C163.259 263.991 163.588 263.683 164 263.46C164.412 263.238 164.867 263.072 165.364 262.963C165.866 262.849 166.37 262.759 166.877 262.693C167.54 262.608 168.077 262.544 168.489 262.501C168.906 262.454 169.209 262.376 169.398 262.267C169.592 262.158 169.689 261.969 169.689 261.699V261.642C169.689 260.941 169.498 260.397 169.114 260.009C168.735 259.62 168.16 259.426 167.388 259.426C166.588 259.426 165.961 259.601 165.506 259.952C165.051 260.302 164.732 260.676 164.547 261.074L162.956 260.506C163.24 259.843 163.619 259.327 164.093 258.957C164.571 258.583 165.092 258.323 165.655 258.176C166.223 258.025 166.782 257.949 167.331 257.949C167.682 257.949 168.084 257.991 168.539 258.077C168.998 258.157 169.441 258.325 169.867 258.581C170.298 258.837 170.655 259.223 170.939 259.739C171.223 260.255 171.365 260.946 171.365 261.812V269H169.689V267.523H169.604C169.49 267.759 169.301 268.013 169.036 268.283C168.771 268.553 168.418 268.782 167.978 268.972C167.537 269.161 167 269.256 166.365 269.256ZM166.621 267.75C167.284 267.75 167.843 267.62 168.297 267.359C168.757 267.099 169.102 266.763 169.334 266.351C169.571 265.939 169.689 265.506 169.689 265.051V263.517C169.618 263.602 169.462 263.68 169.221 263.751C168.984 263.818 168.709 263.877 168.397 263.929C168.089 263.976 167.788 264.019 167.495 264.057C167.206 264.09 166.971 264.118 166.792 264.142C166.356 264.199 165.949 264.291 165.57 264.419C165.196 264.542 164.893 264.729 164.661 264.98C164.434 265.226 164.32 265.562 164.32 265.989C164.32 266.571 164.535 267.011 164.966 267.31C165.402 267.603 165.953 267.75 166.621 267.75ZM172.94 259.653V258.091H181.804V259.653H178.224V269H176.548V259.653H172.94ZM185.698 262.04H188.823C190.101 262.04 191.079 262.364 191.756 263.013C192.433 263.661 192.772 264.483 192.772 265.477C192.772 266.131 192.62 266.725 192.317 267.26C192.014 267.79 191.569 268.214 190.982 268.531C190.395 268.844 189.675 269 188.823 269H184.249V258.091H185.925V267.438H188.823C189.486 267.438 190.03 267.262 190.456 266.912C190.882 266.562 191.096 266.112 191.096 265.562C191.096 264.985 190.882 264.514 190.456 264.149C190.03 263.785 189.486 263.602 188.823 263.602H185.698V262.04ZM210.167 269L209.073 267.92L213.576 263.418H201.914V261.855H213.576L209.073 257.366L210.167 256.273L216.531 262.636L210.167 269Z" fill="white"/>
</svg>
