<svg width="456" height="310" viewBox="0 0 456 310" fill="none" xmlns="http://www.w3.org/2000/svg">
<rect width="456" height="310" rx="20" fill="#1B1B1B"/>
<path d="M214.654 165.523V160.438H215.591C215.913 160.144 216.216 159.73 216.501 159.195C216.789 158.655 217.033 157.935 217.232 157.036C217.436 156.131 217.571 154.983 217.637 153.591L217.949 147.455H226.586V160.438H228.262V165.494H226.586V162H216.33V165.523H214.654ZM217.694 160.438H224.91V149.017H219.54L219.313 153.591C219.256 154.652 219.157 155.613 219.015 156.474C218.873 157.331 218.69 158.091 218.468 158.754C218.245 159.412 217.987 159.973 217.694 160.438ZM230.923 162V147.455H235.838C236.979 147.455 237.912 147.661 238.637 148.072C239.366 148.48 239.905 149.031 240.256 149.727C240.606 150.423 240.781 151.2 240.781 152.057C240.781 152.914 240.606 153.693 240.256 154.393C239.91 155.094 239.375 155.653 238.651 156.07C237.926 156.482 236.998 156.688 235.867 156.688H232.344V155.125H235.81C236.591 155.125 237.218 154.99 237.692 154.72C238.165 154.45 238.509 154.086 238.722 153.626C238.94 153.162 239.048 152.639 239.048 152.057C239.048 151.474 238.94 150.954 238.722 150.494C238.509 150.035 238.163 149.675 237.685 149.415C237.207 149.15 236.572 149.017 235.781 149.017H232.685V162H230.923Z" fill="white"/>
<path d="M29.5591 281.199C28.6216 281.199 27.7859 281.038 27.052 280.716C26.3229 280.394 25.7428 279.946 25.312 279.374C24.8858 278.796 24.6538 278.126 24.6159 277.364H26.4057C26.4436 277.832 26.6046 278.237 26.8887 278.578C27.1728 278.914 27.5444 279.175 28.0037 279.359C28.463 279.544 28.972 279.636 29.5307 279.636C30.1557 279.636 30.7097 279.527 31.1926 279.31C31.6756 279.092 32.0544 278.789 32.329 278.401C32.6036 278.012 32.7409 277.562 32.7409 277.051C32.7409 276.516 32.6084 276.045 32.3432 275.638C32.0781 275.226 31.6898 274.904 31.1784 274.672C30.6671 274.44 30.0421 274.324 29.3034 274.324H28.1387V272.761H29.3034C29.8811 272.761 30.3877 272.657 30.8233 272.449C31.2637 272.241 31.6069 271.947 31.8532 271.568C32.1041 271.189 32.2296 270.744 32.2296 270.233C32.2296 269.741 32.1207 269.312 31.9029 268.947C31.6851 268.583 31.3773 268.299 30.9796 268.095C30.5866 267.892 30.1226 267.79 29.5875 267.79C29.0856 267.79 28.6122 267.882 28.1671 268.067C27.7267 268.247 27.3669 268.509 27.0875 268.855C26.8082 269.196 26.6567 269.608 26.633 270.091H24.9284C24.9569 269.329 25.1865 268.661 25.6174 268.088C26.0482 267.51 26.6117 267.061 27.3077 266.739C28.0085 266.417 28.7779 266.256 29.6159 266.256C30.5156 266.256 31.2873 266.438 31.9313 266.803C32.5752 267.162 33.07 267.638 33.4157 268.23C33.7613 268.822 33.9341 269.461 33.9341 270.148C33.9341 270.967 33.7187 271.665 33.2878 272.243C32.8617 272.821 32.2817 273.221 31.5478 273.443V273.557C32.4663 273.708 33.1837 274.099 33.6998 274.729C34.2159 275.354 34.4739 276.128 34.4739 277.051C34.4739 277.842 34.2585 278.552 33.8276 279.182C33.4015 279.807 32.8191 280.299 32.0804 280.659C31.3418 281.019 30.5014 281.199 29.5591 281.199ZM40.6174 281.256C39.9261 281.256 39.2987 281.125 38.7353 280.865C38.1718 280.6 37.7244 280.219 37.3929 279.722C37.0615 279.22 36.8958 278.614 36.8958 277.903C36.8958 277.278 37.0189 276.772 37.2651 276.384C37.5113 275.991 37.8404 275.683 38.2523 275.46C38.6642 275.238 39.1188 275.072 39.6159 274.963C40.1178 274.849 40.6221 274.759 41.1287 274.693C41.7916 274.608 42.329 274.544 42.7409 274.501C43.1576 274.454 43.4606 274.376 43.65 274.267C43.8442 274.158 43.9412 273.969 43.9412 273.699V273.642C43.9412 272.941 43.7495 272.397 43.3659 272.009C42.9872 271.62 42.4119 271.426 41.6401 271.426C40.8399 271.426 40.2125 271.601 39.758 271.952C39.3034 272.302 38.9838 272.676 38.7992 273.074L37.2083 272.506C37.4924 271.843 37.8712 271.327 38.3446 270.957C38.8229 270.583 39.3437 270.323 39.9071 270.176C40.4753 270.025 41.034 269.949 41.5833 269.949C41.9337 269.949 42.3361 269.991 42.7907 270.077C43.2499 270.157 43.6926 270.325 44.1188 270.581C44.5497 270.837 44.9071 271.223 45.1912 271.739C45.4753 272.255 45.6174 272.946 45.6174 273.812V281H43.9412V279.523H43.856C43.7424 279.759 43.553 280.013 43.2878 280.283C43.0227 280.553 42.6699 280.782 42.2296 280.972C41.7892 281.161 41.2518 281.256 40.6174 281.256ZM40.873 279.75C41.5359 279.75 42.0946 279.62 42.5492 279.359C43.0085 279.099 43.3541 278.763 43.5861 278.351C43.8229 277.939 43.9412 277.506 43.9412 277.051V275.517C43.8702 275.602 43.714 275.68 43.4725 275.751C43.2357 275.818 42.9611 275.877 42.6486 275.929C42.3408 275.976 42.0402 276.019 41.7466 276.057C41.4578 276.09 41.2234 276.118 41.0435 276.142C40.6079 276.199 40.2007 276.291 39.8219 276.419C39.4479 276.542 39.1448 276.729 38.9128 276.98C38.6855 277.226 38.5719 277.562 38.5719 277.989C38.5719 278.571 38.7873 279.011 39.2182 279.31C39.6538 279.603 40.2054 279.75 40.873 279.75ZM56.7733 266L57.6255 267.023C57.2941 267.345 56.9106 267.57 56.475 267.697C56.0394 267.825 55.5469 267.903 54.9977 267.932C54.4484 267.96 53.8377 267.989 53.1653 268.017C52.4077 268.045 51.7804 268.23 51.2832 268.571C50.786 268.912 50.4025 269.404 50.1326 270.048C49.8627 270.692 49.6899 271.483 49.6142 272.42H49.7562C50.1255 271.739 50.6369 271.237 51.2903 270.915C51.9437 270.593 52.6445 270.432 53.3926 270.432C54.2449 270.432 55.0119 270.631 55.6937 271.028C56.3755 271.426 56.9153 272.016 57.313 272.797C57.7108 273.578 57.9096 274.542 57.9096 275.688C57.9096 276.829 57.706 277.813 57.2988 278.642C56.8964 279.471 56.3306 280.11 55.6014 280.56C54.877 281.005 54.027 281.227 53.0517 281.227C52.0763 281.227 51.2217 280.998 50.4877 280.538C49.7538 280.074 49.1833 279.388 48.7761 278.479C48.3689 277.565 48.1653 276.436 48.1653 275.091V273.926C48.1653 271.497 48.5772 269.655 49.4011 268.401C50.2297 267.146 51.475 266.497 53.1369 266.455C53.724 266.436 54.2472 266.431 54.7065 266.44C55.1658 266.45 55.5659 266.429 55.9068 266.376C56.2477 266.324 56.5365 266.199 56.7733 266ZM53.0517 279.722C53.7098 279.722 54.2756 279.556 54.7491 279.224C55.2273 278.893 55.5943 278.427 55.85 277.825C56.1056 277.219 56.2335 276.507 56.2335 275.688C56.2335 274.892 56.1033 274.215 55.8429 273.656C55.5872 273.098 55.2202 272.671 54.742 272.378C54.2638 272.084 53.6909 271.938 53.0233 271.938C52.5356 271.938 52.0976 272.02 51.7093 272.186C51.3211 272.352 50.9896 272.596 50.715 272.918C50.4404 273.24 50.2273 273.633 50.0758 274.097C49.929 274.561 49.8509 275.091 49.8414 275.688C49.8414 276.909 50.1279 277.887 50.7008 278.621C51.2737 279.355 52.0574 279.722 53.0517 279.722ZM60.4735 285.091V270.091H62.0929V271.824H62.2917C62.4148 271.634 62.5853 271.393 62.8031 271.099C63.0256 270.801 63.3429 270.536 63.7548 270.304C64.1715 270.067 64.7349 269.949 65.4451 269.949C66.3637 269.949 67.1734 270.179 67.8741 270.638C68.5749 271.097 69.1217 271.748 69.5147 272.591C69.9077 273.434 70.1042 274.428 70.1042 275.574C70.1042 276.729 69.9077 277.731 69.5147 278.578C69.1217 279.421 68.5772 280.074 67.8812 280.538C67.1852 280.998 66.3826 281.227 65.4735 281.227C64.7728 281.227 64.2117 281.111 63.7903 280.879C63.3689 280.643 63.0446 280.375 62.8173 280.077C62.59 279.774 62.4148 279.523 62.2917 279.324H62.1497V285.091H60.4735ZM62.1213 275.545C62.1213 276.369 62.242 277.096 62.4835 277.726C62.725 278.351 63.0777 278.841 63.5417 279.196C64.0057 279.546 64.5739 279.722 65.2463 279.722C65.947 279.722 66.5318 279.537 67.0005 279.168C67.474 278.794 67.8291 278.292 68.0659 277.662C68.3074 277.027 68.4281 276.322 68.4281 275.545C68.4281 274.778 68.3097 274.087 68.073 273.472C67.841 272.851 67.4882 272.361 67.0147 272.001C66.546 271.637 65.9565 271.455 65.2463 271.455C64.5645 271.455 63.9915 271.627 63.5275 271.973C63.0635 272.314 62.7131 272.792 62.4764 273.408C62.2396 274.018 62.1213 274.731 62.1213 275.545ZM77.0929 281.227C76.108 281.227 75.2439 280.993 74.5005 280.524C73.7619 280.055 73.1842 279.4 72.7676 278.557C72.3556 277.714 72.1497 276.729 72.1497 275.602C72.1497 274.466 72.3556 273.474 72.7676 272.626C73.1842 271.779 73.7619 271.121 74.5005 270.652C75.2439 270.183 76.108 269.949 77.0929 269.949C78.0777 269.949 78.9395 270.183 79.6781 270.652C80.4215 271.121 80.9991 271.779 81.411 272.626C81.8277 273.474 82.036 274.466 82.036 275.602C82.036 276.729 81.8277 277.714 81.411 278.557C80.9991 279.4 80.4215 280.055 79.6781 280.524C78.9395 280.993 78.0777 281.227 77.0929 281.227ZM77.0929 279.722C77.841 279.722 78.4565 279.53 78.9395 279.146C79.4224 278.763 79.7799 278.259 80.0119 277.634C80.2439 277.009 80.3599 276.331 80.3599 275.602C80.3599 274.873 80.2439 274.194 80.0119 273.564C79.7799 272.934 79.4224 272.425 78.9395 272.037C78.4565 271.649 77.841 271.455 77.0929 271.455C76.3448 271.455 75.7292 271.649 75.2463 272.037C74.7633 272.425 74.4058 272.934 74.1738 273.564C73.9418 274.194 73.8258 274.873 73.8258 275.602C73.8258 276.331 73.9418 277.009 74.1738 277.634C74.4058 278.259 74.7633 278.763 75.2463 279.146C75.7292 279.53 76.3448 279.722 77.0929 279.722ZM91.8958 274.778V276.341H85.873V274.778H91.8958ZM86.2708 270.091V281H84.5946V270.091H86.2708ZM93.1742 270.091V281H91.498V270.091H93.1742ZM97.9114 278.528L103.167 270.091H105.099V281H103.423V272.562L98.1955 281H96.2353V270.091H97.9114V278.528ZM108.169 285.091V270.091H109.788V271.824H109.987C110.11 271.634 110.281 271.393 110.498 271.099C110.721 270.801 111.038 270.536 111.45 270.304C111.867 270.067 112.43 269.949 113.14 269.949C114.059 269.949 114.869 270.179 115.569 270.638C116.27 271.097 116.817 271.748 117.21 272.591C117.603 273.434 117.8 274.428 117.8 275.574C117.8 276.729 117.603 277.731 117.21 278.578C116.817 279.421 116.273 280.074 115.577 280.538C114.881 280.998 114.078 281.227 113.169 281.227C112.468 281.227 111.907 281.111 111.486 280.879C111.064 280.643 110.74 280.375 110.513 280.077C110.285 279.774 110.11 279.523 109.987 279.324H109.845V285.091H108.169ZM109.817 275.545C109.817 276.369 109.937 277.096 110.179 277.726C110.42 278.351 110.773 278.841 111.237 279.196C111.701 279.546 112.269 279.722 112.942 279.722C113.642 279.722 114.227 279.537 114.696 279.168C115.169 278.794 115.524 278.292 115.761 277.662C116.003 277.027 116.123 276.322 116.123 275.545C116.123 274.778 116.005 274.087 115.768 273.472C115.536 272.851 115.184 272.361 114.71 272.001C114.241 271.637 113.652 271.455 112.942 271.455C112.26 271.455 111.687 271.627 111.223 271.973C110.759 272.314 110.408 272.792 110.172 273.408C109.935 274.018 109.817 274.731 109.817 275.545ZM124.788 281.227C123.803 281.227 122.939 280.993 122.196 280.524C121.457 280.055 120.88 279.4 120.463 278.557C120.051 277.714 119.845 276.729 119.845 275.602C119.845 274.466 120.051 273.474 120.463 272.626C120.88 271.779 121.457 271.121 122.196 270.652C122.939 270.183 123.803 269.949 124.788 269.949C125.773 269.949 126.635 270.183 127.373 270.652C128.117 271.121 128.694 271.779 129.106 272.626C129.523 273.474 129.731 274.466 129.731 275.602C129.731 276.729 129.523 277.714 129.106 278.557C128.694 279.4 128.117 280.055 127.373 280.524C126.635 280.993 125.773 281.227 124.788 281.227ZM124.788 279.722C125.536 279.722 126.152 279.53 126.635 279.146C127.118 278.763 127.475 278.259 127.707 277.634C127.939 277.009 128.055 276.331 128.055 275.602C128.055 274.873 127.939 274.194 127.707 273.564C127.475 272.934 127.118 272.425 126.635 272.037C126.152 271.649 125.536 271.455 124.788 271.455C124.04 271.455 123.425 271.649 122.942 272.037C122.459 272.425 122.101 272.934 121.869 273.564C121.637 274.194 121.521 274.873 121.521 275.602C121.521 276.331 121.637 277.009 121.869 277.634C122.101 278.259 122.459 278.763 122.942 279.146C123.425 279.53 124.04 279.722 124.788 279.722ZM132.29 281V270.091H136.75C137.924 270.091 138.857 270.356 139.548 270.886C140.24 271.417 140.585 272.117 140.585 272.989C140.585 273.652 140.389 274.165 139.996 274.53C139.603 274.89 139.099 275.134 138.483 275.261C138.886 275.318 139.276 275.46 139.655 275.688C140.039 275.915 140.356 276.227 140.607 276.625C140.858 277.018 140.983 277.501 140.983 278.074C140.983 278.633 140.841 279.132 140.557 279.572C140.273 280.013 139.866 280.361 139.335 280.616C138.805 280.872 138.171 281 137.432 281H132.29ZM133.881 279.466H137.432C138.01 279.466 138.462 279.329 138.789 279.054C139.115 278.779 139.279 278.405 139.279 277.932C139.279 277.368 139.115 276.926 138.789 276.604C138.462 276.277 138.01 276.114 137.432 276.114H133.881V279.466ZM133.881 274.665H136.75C137.2 274.665 137.586 274.603 137.908 274.48C138.23 274.352 138.476 274.172 138.646 273.94C138.822 273.704 138.909 273.424 138.909 273.102C138.909 272.643 138.718 272.283 138.334 272.023C137.95 271.758 137.423 271.625 136.75 271.625H133.881V274.665ZM146.731 281.256C146.039 281.256 145.412 281.125 144.849 280.865C144.285 280.6 143.838 280.219 143.506 279.722C143.175 279.22 143.009 278.614 143.009 277.903C143.009 277.278 143.132 276.772 143.378 276.384C143.625 275.991 143.954 275.683 144.366 275.46C144.778 275.238 145.232 275.072 145.729 274.963C146.231 274.849 146.735 274.759 147.242 274.693C147.905 274.608 148.442 274.544 148.854 274.501C149.271 274.454 149.574 274.376 149.763 274.267C149.957 274.158 150.055 273.969 150.055 273.699V273.642C150.055 272.941 149.863 272.397 149.479 272.009C149.1 271.62 148.525 271.426 147.753 271.426C146.953 271.426 146.326 271.601 145.871 271.952C145.417 272.302 145.097 272.676 144.912 273.074L143.322 272.506C143.606 271.843 143.984 271.327 144.458 270.957C144.936 270.583 145.457 270.323 146.02 270.176C146.589 270.025 147.147 269.949 147.697 269.949C148.047 269.949 148.449 269.991 148.904 270.077C149.363 270.157 149.806 270.325 150.232 270.581C150.663 270.837 151.02 271.223 151.305 271.739C151.589 272.255 151.731 272.946 151.731 273.812V281H150.055V279.523H149.969C149.856 279.759 149.666 280.013 149.401 280.283C149.136 280.553 148.783 280.782 148.343 280.972C147.903 281.161 147.365 281.256 146.731 281.256ZM146.986 279.75C147.649 279.75 148.208 279.62 148.662 279.359C149.122 279.099 149.467 278.763 149.699 278.351C149.936 277.939 150.055 277.506 150.055 277.051V275.517C149.983 275.602 149.827 275.68 149.586 275.751C149.349 275.818 149.074 275.877 148.762 275.929C148.454 275.976 148.153 276.019 147.86 276.057C147.571 276.09 147.337 276.118 147.157 276.142C146.721 276.199 146.314 276.291 145.935 276.419C145.561 276.542 145.258 276.729 145.026 276.98C144.799 277.226 144.685 277.562 144.685 277.989C144.685 278.571 144.901 279.011 145.331 279.31C145.767 279.603 146.319 279.75 146.986 279.75ZM153.306 271.653V270.091H162.169V271.653H158.59V281H156.914V271.653H153.306ZM166.063 274.04H169.188C170.466 274.04 171.444 274.364 172.121 275.013C172.798 275.661 173.137 276.483 173.137 277.477C173.137 278.131 172.985 278.725 172.682 279.26C172.379 279.79 171.934 280.214 171.347 280.531C170.76 280.844 170.04 281 169.188 281H164.614V270.091H166.29V279.438H169.188C169.851 279.438 170.395 279.262 170.822 278.912C171.248 278.562 171.461 278.112 171.461 277.562C171.461 276.985 171.248 276.514 170.822 276.149C170.395 275.785 169.851 275.602 169.188 275.602H166.063V274.04ZM190.532 281L189.438 279.92L193.941 275.418H182.279V273.855H193.941L189.438 269.366L190.532 268.273L196.896 274.636L190.532 281Z" fill="white"/>
</svg>
