<svg width="73" height="64" viewBox="0 0 73 64" fill="none" xmlns="http://www.w3.org/2000/svg">
<path fill-rule="evenodd" clip-rule="evenodd" d="M61.9013 59.8033L61.9038 59.797L61.9678 59.6373L73 4.1334V3.95312C73 2.57021 72.4879 1.36292 71.3737 0.638761C70.3984 0.00489841 69.2772 -0.0402434 68.491 0.0193043C67.6595 0.0822816 66.8755 0.28939 66.3327 0.461787C66.0535 0.550479 65.8197 0.635938 65.6526 0.700574C65.5687 0.733013 65.5008 0.760541 65.4513 0.781051L65.4027 0.801452L3.89239 24.8801L3.87546 24.8862C3.84224 24.8982 3.79831 24.9146 3.74525 24.9352C3.63946 24.9763 3.49547 25.0351 3.32632 25.1116C2.99418 25.2618 2.53529 25.4936 2.06991 25.8116C1.27949 26.3518 -0.225598 27.6305 0.0285477 29.6578C0.239056 31.337 1.39902 32.4034 2.18104 32.9556C2.60024 33.2516 3.00129 33.465 3.29497 33.6045C3.44377 33.6752 3.57017 33.7294 3.6643 33.7676C3.7115 33.7868 3.75096 33.8021 3.78149 33.8137L3.82058 33.8282L3.84556 33.8375L14.6072 37.4528C14.5709 38.1266 14.6378 38.8136 14.8169 39.4914L20.2075 59.897C20.8467 62.3165 23.0401 64.0018 25.5475 64C27.7951 63.9984 29.7884 62.6416 30.6352 60.6172L39.0514 51.6374L53.5056 62.6957L53.7112 62.7852C55.0244 63.357 56.2513 63.5382 57.3731 63.3853C58.4933 63.2326 59.3835 62.7638 60.0522 62.23C60.7102 61.7046 61.1612 61.1118 61.4447 60.6654C61.5888 60.4386 61.6962 60.2393 61.7707 60.0892C61.8081 60.0139 61.8377 59.9501 61.8598 59.9005L61.8875 59.8366L61.8973 59.8129L61.9013 59.8033ZM20.1528 38.0877C20.0302 37.6239 20.2226 37.1344 20.6283 36.8772L57.1303 13.7458C57.1303 13.7458 59.2772 12.4452 59.2005 13.7458C59.2005 13.7458 59.5837 13.9755 58.4332 15.0465C57.342 16.0637 32.4173 40.0767 29.8953 42.5065C29.7497 42.6468 29.6628 42.8077 29.6115 43.003L25.5434 58.4933L20.1528 38.0877Z" fill="#149EF2"/>
</svg>
