<svg width="73" height="72" viewBox="0 0 73 72" fill="none" xmlns="http://www.w3.org/2000/svg">
<path d="M65.4063 55.1429H58.4668C55.8412 55.1429 55.0517 53.0459 50.3428 48.4016C46.2333 44.4938 44.4972 44.0059 43.4556 44.0059C42.0191 44.0059 41.6244 44.3953 41.6244 46.3515V52.5064C41.6244 54.1718 41.0774 55.1476 36.6682 55.1476C32.3891 54.864 28.2395 53.5817 24.5612 51.4065C20.883 49.2312 17.7813 46.2252 15.5117 42.636C10.1235 36.0214 6.37441 28.258 4.5625 19.9633C4.5625 18.9359 4.95728 18.007 6.9407 18.007H13.8755C15.6592 18.007 16.3013 18.7905 17.0005 20.5966C20.368 30.3731 26.1137 38.8737 28.4444 38.8737C29.3386 38.8737 29.7286 38.4843 29.7286 36.2841V26.2167C29.4337 21.624 26.9604 21.2346 26.9604 19.5739C26.9922 19.1359 27.1957 18.7273 27.5278 18.4348C27.8599 18.1423 28.2944 17.9888 28.7393 18.007H39.6409C41.1297 18.007 41.6244 18.7389 41.6244 20.4981V34.0839C41.6244 35.5523 42.2665 36.0402 42.7136 36.0402C43.6078 36.0402 44.2975 35.5523 45.9337 33.9385C49.448 29.7114 52.3193 25.002 54.4571 19.9586C54.6756 19.3528 55.0891 18.8341 55.6345 18.4817C56.1798 18.1294 56.827 17.9627 57.4774 18.007H64.417C66.4956 18.007 66.9379 19.0344 66.4956 20.4981C63.9722 26.0733 60.8501 31.3656 57.1825 36.2841C56.4358 37.41 56.1361 37.9964 57.1825 39.3146C57.8722 40.342 60.3027 42.3452 61.9389 44.2498C64.3167 46.5891 66.2912 49.2956 67.7845 52.2625C68.3791 54.1671 67.385 55.1429 65.4063 55.1429Z" fill="white"/>
</svg>
