<svg width="73" height="72" viewBox="0 0 73 72" fill="none" xmlns="http://www.w3.org/2000/svg">
<path d="M29.1021 30.4503C29.5179 29.9775 29.6938 29.6159 29.9411 29.1078C29.9741 29.0398 30.0085 28.9693 30.0448 28.8955M29.1021 30.4503L27.7018 33.718C27.4903 33.3566 27.5163 33.1572 27.5659 33.0264C27.6341 32.8463 27.7887 32.6788 28.0385 32.4328L28.0387 32.4325C28.3217 32.1534 28.6442 31.7676 28.9474 31.4048L28.9592 31.3907C29.1375 31.1773 29.3114 30.9693 29.4774 30.7806L29.4775 30.7805C29.9379 30.2569 30.1386 29.8446 30.3858 29.3366L30.3907 29.3265C30.4238 29.2585 30.4576 29.1891 30.4933 29.1166M29.1021 30.4503C28.9311 30.6446 28.753 30.8577 28.5755 31.07M29.1021 30.4503L28.5755 31.07M30.0448 28.8955L30.4933 29.1166M30.0448 28.8955L30.4933 29.1165C30.4933 29.1165 30.4933 29.1166 30.4933 29.1166M30.0448 28.8955C30.353 28.2702 30.2079 27.7342 29.9723 27.2696M30.4933 29.1166L30.4182 27.0435L29.9723 27.2696M29.9723 27.2696L30.4182 27.0434M29.9723 27.2696C29.8691 27.0662 29.4569 26.0723 28.9561 24.8644L28.9559 24.864L30.4182 27.0434M30.4182 27.0434C30.3263 26.8621 29.9261 25.8983 29.4179 24.6729L29.4143 24.6641C28.7729 23.1175 27.9809 21.2078 27.5085 20.1654L27.5082 20.1648M30.4182 27.0434L27.5082 20.1648M27.5082 20.1648C27.1297 19.3329 26.7087 18.8338 26.2275 18.5576C25.7524 18.2849 25.2852 18.2726 24.9528 18.2638L24.948 18.2636C24.9475 18.2636 24.947 18.2636 24.9465 18.2636C24.3947 18.2456 23.7541 18.2456 23.1239 18.2456H23.1183C22.3709 18.2456 21.2139 18.518 20.2331 19.5652C20.1833 19.6184 20.1277 19.6765 20.0651 19.742L20.4266 20.0874L20.0651 19.742C19.0586 20.7953 16.7978 23.1645 16.7978 27.6808C16.7978 30.0511 17.6617 32.3558 18.5712 34.1354C19.4841 35.9217 20.4653 37.2217 20.7407 37.5866L20.7408 37.5867L20.7408 37.5868L20.7607 37.613C20.7607 37.6131 20.7608 37.6132 20.7608 37.6133C20.7608 37.6133 20.7609 37.6133 20.7609 37.6133C20.7865 37.6474 20.8419 37.7281 20.9398 37.8715L20.9457 37.8801C22.1428 39.6321 28.0818 48.324 37.1161 51.8418C40.7388 53.2538 43.0848 53.9095 44.7404 54.1844C46.4143 54.4624 47.3723 54.3489 48.192 54.2507C48.3619 54.2303 48.5194 54.2115 48.6766 54.1968C49.6613 54.1057 51.1365 53.4958 52.4439 52.6619C53.7443 51.8326 55.0246 50.6898 55.4822 49.4391L55.4834 49.4356M27.5082 20.1648L55.4834 49.4356M32.8588 40.0459L32.8596 40.0466C35.8209 42.657 38.3902 43.7547 39.7015 44.3149L39.7025 44.3153L39.715 44.3207C39.9625 44.4264 40.1816 44.52 40.3471 44.6016C40.7857 44.8176 41.0574 44.8675 41.2425 44.846C41.4056 44.827 41.5771 44.7434 41.7978 44.4897L42.175 44.8178L41.7978 44.4896C42.352 43.8526 44.1367 41.7929 44.7524 40.8928C45.1148 40.3478 45.5429 40.0364 46.0746 39.9743C46.5539 39.9184 47.0372 40.0818 47.4618 40.2386L47.4619 40.2387C47.9242 40.4095 49.3294 41.0664 50.7039 41.7216C52.0926 42.3835 53.4907 43.0635 53.9643 43.2969L53.9644 43.2969C54.147 43.3869 54.3181 43.4682 54.48 43.5451L54.498 43.5536C54.8114 43.7024 55.1061 43.8423 55.3449 43.9868C55.5874 44.1335 55.8286 44.3168 55.9854 44.5785L32.8588 40.0459ZM32.8588 40.0459C30.1082 37.6323 28.2365 34.6306 27.7019 33.7181L32.8588 40.0459ZM55.4834 49.4356C55.8878 48.3048 56.0918 47.253 56.1635 46.4244M55.4834 49.4356L56.1635 46.4244M56.1635 46.4244C56.1993 46.0106 56.2027 45.6449 56.1791 45.3477M56.1635 46.4244L56.1791 45.3477M56.1791 45.3477C56.1576 45.0772 56.1088 44.7845 55.9855 44.5786L56.1791 45.3477ZM28.5755 31.07C28.2634 31.4434 27.9534 31.8144 27.6876 32.0766L28.5755 31.07ZM19.275 67.1431C19.1642 67.0837 19.0351 67.0682 18.9134 67.0996L2.02565 71.4673C1.2964 71.6559 0.654489 70.9925 0.848515 70.2952L5.35921 54.083C5.39546 53.9527 5.37738 53.8133 5.3091 53.6965C2.15609 48.306 0.49775 42.1934 0.500002 35.9723V35.9721C0.500002 16.4196 16.6607 0.5 36.4997 0.5C46.1425 0.5 55.1731 4.20151 61.969 10.8991C68.7642 17.5963 72.5 26.5105 72.5 35.9899C72.5 55.5421 56.3393 71.4617 36.5 71.4617H36.4819C30.4539 71.4617 24.5333 69.9633 19.275 67.1431Z" fill="#82FF80" stroke="#82FF80" stroke-linejoin="round"/>
</svg>
